<?xml version="1.0" encoding="utf-8"?>
<!-- Generator: Adobe Illustrator 25.4.1, SVG Export Plug-In . SVG Version: 6.00 Build 0)  -->
<svg version="1.1" id="icon-链家首页个人中心"
	 xmlns="http://www.w3.org/2000/svg" xmlns:xlink="http://www.w3.org/1999/xlink" x="0px" y="0px" viewBox="0 0 32 298"
	 style="enable-background:new 0 0 32 298;" xml:space="preserve">
<style type="text/css">
	.st0{fill:#00AE66;}
	.st1{fill:#FFFFFF;}
	.st2{fill:#3478F1;}
	.st3{fill:#9C9FA1;}
	.st4{display:none;fill:url(#SVGID_1_);}
	
		.st5{clip-path:url(#XMLID_00000132061572658781898020000007051593492752066464_);fill:url(#SVGID_00000095313347992741976300000005293241755499317890_);}
	
		.st6{clip-path:url(#XMLID_00000031920086372691641330000013424023079531535250_);fill:url(#SVGID_00000103954491386354844130000002205719195319291299_);}
	
		.st7{clip-path:url(#XMLID_00000056385842434381571330000001892903947615097472_);fill:url(#SVGID_00000127020438999460237890000010662947521353023365_);}
	.st8{fill-rule:evenodd;clip-rule:evenodd;fill:#FFFFFF;}
</style>
<path class="st0" d="M15.6,7.2c2.6,0,4.6,2,4.6,4.4S18.2,16,15.6,16S11,14,11,11.6C11,9.2,13.1,7.2,15.6,7.2z M15.6,5.5
	c-3.5,0-6.3,2.7-6.3,6.1s2.8,6.1,6.3,6.1S22,15,22,11.6C22,8.2,19.1,5.5,15.6,5.5C15.6,5.5,15.6,5.5,15.6,5.5z"/>
<path class="st0" d="M16,18c2.1,0,4.1,0.7,5.6,1.9c0.9,0.8,1.6,1.7,1.9,2.6H8.4c0.4-1,1-1.9,1.9-2.6C11.9,18.7,13.9,18,16,18z
	 M16,16.3c-5.2,0-9.5,3.6-9.7,8h19.3C25.5,19.8,21.2,16.3,16,16.3C16,16.3,16,16.3,16,16.3z"/>
<path class="st1" d="M24.3,25c0,3.9-3.7,7-8.2,7s-8.2-3.1-8.2-7s3.7-7,8.2-7S24.3,21.1,24.3,25z"/>
<path class="st0" d="M23.2,41.2c-0.4-0.4-1-0.4-1.4,0L9.3,53.5c-0.4,0.4-0.4,1,0,1.4c0.4,0.4,1,0.4,1.4,0l12.5-12.3
	C23.6,42.2,23.6,41.5,23.2,41.2z"/>
<path class="st0" d="M10,55.5c-0.4,0-0.7-0.1-1-0.4c-0.3-0.3-0.4-0.6-0.4-1c0-0.4,0.1-0.7,0.4-1l12.5-12.3c0.5-0.5,1.4-0.5,1.9,0
	c0.3,0.3,0.4,0.6,0.4,1c0,0.4-0.1,0.7-0.4,1L10.9,55.1C10.7,55.4,10.3,55.5,10,55.5z M22.5,41.3c-0.2,0-0.3,0.1-0.4,0.2L9.5,53.8
	c-0.1,0.1-0.2,0.3-0.2,0.4c0,0.2,0.1,0.3,0.2,0.4c0.2,0.2,0.6,0.2,0.9,0l12.5-12.3c0.1-0.1,0.2-0.3,0.2-0.4c0-0.2-0.1-0.3-0.2-0.4
	C22.8,41.3,22.7,41.3,22.5,41.3z"/>
<path class="st0" d="M23.1,67.6c0.4-0.4,0.4-1,0-1.4L10.8,53.6c-0.4-0.4-1-0.4-1.4,0c-0.4,0.4-0.4,1,0,1.4l12.3,12.5
	C22.2,68,22.8,68,23.1,67.6z"/>
<path class="st0" d="M22.5,68.3c-0.4,0-0.7-0.1-1-0.4L9.2,55.3c-0.5-0.5-0.5-1.4,0-1.9c0.5-0.5,1.4-0.5,1.9,0l12.3,12.5
	c0.5,0.5,0.5,1.4,0,1.9C23.2,68.1,22.8,68.3,22.5,68.3z M10.1,53.7c-0.2,0-0.3,0.1-0.4,0.2c-0.2,0.2-0.2,0.6,0,0.9l12.3,12.5
	c0.2,0.2,0.6,0.2,0.8,0c0.2-0.2,0.2-0.6,0-0.9L10.6,53.9C10.5,53.8,10.3,53.7,10.1,53.7z"/>
<path class="st2" d="M15.6,121.2c2.6,0,4.6,2,4.6,4.4s-2.1,4.4-4.6,4.4s-4.6-2-4.6-4.4C11,123.2,13.1,121.2,15.6,121.2z M15.6,119.5
	c-3.5,0-6.3,2.7-6.3,6.1c0,3.4,2.8,6.1,6.3,6.1s6.3-2.7,6.3-6.1C22,122.2,19.1,119.5,15.6,119.5C15.6,119.5,15.6,119.5,15.6,119.5z"
	/>
<path class="st2" d="M16,132c2.1,0,4.1,0.7,5.6,1.9c0.9,0.8,1.6,1.7,1.9,2.6H8.4c0.4-1,1-1.9,1.9-2.6C11.9,132.7,13.9,132,16,132z
	 M16,130.3c-5.2,0-9.5,3.6-9.7,8h19.3C25.5,133.8,21.2,130.3,16,130.3C16,130.3,16,130.3,16,130.3z"/>
<path class="st1" d="M24.3,139c0,3.9-3.7,7-8.2,7s-8.2-3.1-8.2-7s3.7-7,8.2-7S24.3,135.1,24.3,139z"/>
<path class="st2" d="M23.2,155.2c-0.4-0.4-1-0.4-1.4,0L9.3,167.5c-0.4,0.4-0.4,1,0,1.4c0.4,0.4,1,0.4,1.4,0l12.5-12.3
	C23.6,156.2,23.6,155.5,23.2,155.2z"/>
<path class="st2" d="M10,169.5c-0.4,0-0.7-0.1-1-0.4c-0.3-0.3-0.4-0.6-0.4-1s0.1-0.7,0.4-1l12.5-12.3c0.5-0.5,1.4-0.5,1.9,0
	c0.3,0.3,0.4,0.6,0.4,1c0,0.4-0.1,0.7-0.4,1l-12.5,12.3C10.7,169.4,10.3,169.5,10,169.5z M22.5,155.3c-0.2,0-0.3,0.1-0.4,0.2
	L9.5,167.8c-0.1,0.1-0.2,0.3-0.2,0.4s0.1,0.3,0.2,0.4c0.2,0.2,0.6,0.2,0.9,0l12.5-12.3c0.1-0.1,0.2-0.3,0.2-0.4
	c0-0.2-0.1-0.3-0.2-0.4C22.8,155.3,22.7,155.3,22.5,155.3z"/>
<path class="st2" d="M23.1,181.6c0.4-0.4,0.4-1,0-1.4l-12.3-12.5c-0.4-0.4-1-0.4-1.4,0c-0.4,0.4-0.4,1,0,1.4l12.3,12.5
	C22.2,182,22.8,182,23.1,181.6z"/>
<path class="st2" d="M22.5,182.3c-0.4,0-0.7-0.1-1-0.4L9.2,169.3c-0.5-0.5-0.5-1.4,0-1.9c0.5-0.5,1.4-0.5,1.9,0l12.3,12.5
	c0.5,0.5,0.5,1.4,0,1.9C23.2,182.1,22.8,182.3,22.5,182.3z M10.1,167.7c-0.2,0-0.3,0.1-0.4,0.2c-0.2,0.2-0.2,0.6,0,0.9l12.3,12.5
	c0.2,0.2,0.6,0.2,0.8,0c0.2-0.2,0.2-0.6,0-0.9l-12.3-12.5C10.5,167.8,10.3,167.7,10.1,167.7z"/>
<path class="st2" d="M7,207c0,0.2-0.2,0.4-0.4,0.4s-0.4-0.2-0.4-0.4c0-0.2,0.2-0.4,0.4-0.4S7,206.8,7,207z"/>
<path class="st2" d="M6.6,208.6L6.6,208.6L6.6,208.6L6.6,208.6z"/>
<path class="st2" d="M6.7,204.9L5,203.6c-0.1-0.1-0.2-0.2-0.5-0.2s-0.4,0.1-0.5,0.2l0,0l-1.8,1.3c-0.1,0.1-0.3,0.2-0.3,0.5v2.5
	c0,0.3,0.3,0.6,0.6,0.6h4c0,0,0,0,0.1,0c0.2,0,0.4-0.2,0.4-0.4c0-0.2-0.2-0.4-0.4-0.4c0,0,0,0,0,0l0,0H3c0,0,0,0,0,0
	c-0.1,0-0.1-0.1-0.1-0.1c0,0,0,0,0,0c0,0,0,0,0,0v-2c0-0.1,0-0.1,0.1-0.2c0,0,0.5-0.3,1.4-1l0.1-0.1l0,0l0,0l0,0l0,0c0,0,0,0,0,0
	l0,0c0,0,0,0,0,0c0,0,0,0,0,0l0,0c0,0,0.1,0,0.1,0c0,0,0.1,0,0.1,0l0,0l0,0c0,0,0,0,0,0l0,0l0,0c0.1,0,0.8,0.6,1.2,0.9l0.3,0.2
	c0,0,0.1,0.1,0.1,0.1v0.3c0,0.2,0.2,0.4,0.4,0.4s0.4-0.2,0.4-0.4v-0.4C7,205.2,6.9,205,6.7,204.9z"/>
<path class="st2" d="M4.4,204.4L4.4,204.4z"/>
<path class="st2" d="M18.4,208.6l-0.9-1.2c-0.2-0.3-0.2-0.6,0-0.9l0.6-0.6h0.7l-0.9,0.9c-0.1,0.1-0.1,0.2,0,0.3l1.1,1.5L18.4,208.6
	L18.4,208.6z M16.4,208.6L16.4,208.6c0-0.1,0-0.4,0.1-0.7l0,0l0,0c-0.7,0.3-1.7,0.6-2.4,0.7v-0.5c0.6-0.1,1.6-0.4,2.4-0.8l0,0v0
	c0-0.1,0-0.1,0-0.2c0-0.1,0-0.2,0-0.2v0l0,0c-0.9,0.4-1.9,0.7-2.4,0.8v-0.5c0.6-0.1,1.6-0.4,2.4-0.8l0,0v0c0-0.1,0-0.3-0.1-0.4l0,0
	l0,0c-0.7,0.3-1.6,0.6-2.4,0.7v-0.5c0.6-0.1,1.4-0.3,2.2-0.7l0,0H15V205h3.1v0.4h-1.2l0,0c0.2,0.4,0.2,1.1,0.2,1.6
	c0,0.6-0.1,1.1-0.2,1.5C16.9,208.6,16.4,208.6,16.4,208.6z M18.5,205.5v-0.8h-3.9v0.8h-0.5v-0.9c0-0.2,0.1-0.3,0.3-0.3h1.8v-0.4h0.6
	v0.4h1.9c0.2,0,0.3,0.1,0.3,0.3v0.9C19,205.5,18.5,205.5,18.5,205.5z"/>
<path class="st2" d="M10.5,208.6c-0.5,0-0.5-0.2-0.5-0.5v-2.4H9.3v0.8h0.5v0.4H9.3v1.3h0.5v0.4H9.3c-0.4,0-0.5-0.1-0.5-0.4v-1.2H8.2
	v-0.4h0.5v-0.8H8.2l0.4-1.7H9L9,204.3h0.8v0.4H8.9l-0.1,0.4h1.5c0.1,0,0.3,0.1,0.3,0.2v2.7H12v-0.7h-1.1V207H12v-0.7h-0.9
	c-0.1,0-0.1,0-0.2-0.1c0-0.1-0.1-0.1,0-0.2l0.3-1.3h-0.9c-0.1,0-0.2-0.1-0.2-0.2l-0.2-0.7h0.5l0.1,0.4h0.8l0.1-0.4h0.5l-0.1,0.4h1.6
	v0.4h-1.7l-0.2,1.1H12v-0.7h0.5v0.7h0.9v0.4h-0.9v0.7h0.9v0.4h-0.9v0.7h0.9v0.4L10.5,208.6L10.5,208.6z"/>
<path class="st2" d="M23.8,205.5C23.8,205.5,23.8,205.5,23.8,205.5C23.8,205.5,23.8,205.5,23.8,205.5l0,2.6c0,0,0,0,0,0c0,0,0,0,0,0
	h-2.3c0,0,0,0,0,0c0,0,0,0,0,0v-2.6c0,0,0,0,0,0c0,0,0,0,0,0C21.5,205.5,23.8,205.5,23.8,205.5z M23.8,205.1h-2.3
	c-0.3,0-0.5,0.2-0.5,0.5v2.6c0,0.3,0.2,0.5,0.5,0.5h2.3c0.3,0,0.5-0.2,0.5-0.5v-2.6C24.3,205.2,24.1,205.1,23.8,205.1L23.8,205.1z"
	/>
<path class="st2" d="M20.7,206.6h3.8v0.5h-3.8V206.6z"/>
<path class="st2" d="M23.2,206.9l-1.5-1.5l0.4-0.2l1.6,1.6L23.2,206.9z"/>
<path class="st2" d="M23.3,208.6l-1.7-1.7l0.4-0.3l1.6,1.6L23.3,208.6z"/>
<path class="st2" d="M20.1,208.5h-0.5l0.4-1.1c0.1-0.2,0.2-0.4,0-0.8l-0.6-1H20l0.5,0.8c0.2,0.3,0.2,0.6,0.1,1
	C20.5,207.4,20.1,208.5,20.1,208.5z"/>
<path class="st2" d="M20,205.2l-0.6-1H20l0.6,1H20z"/>
<path class="st2" d="M21.3,203.9h-0.6v0.6c0,0.2,0.1,0.3,0.3,0.3h3.5v-0.4h-3.2V203.9z"/>
<path class="st2" d="M28.1,204h0.5v4.5h-0.5V204z"/>
<path class="st2" d="M25.3,206.4h-0.6c0,0,0.7-0.9,0.7-2.5H26C26,205.5,25.3,206.4,25.3,206.4z"/>
<path class="st2" d="M25.5,208.6h-0.7c0,0,0.1,0,2.1-2.2c0.3-0.3,0.3-0.4,0.3-0.9c0-0.4,0-0.4,0-0.9h-1.4v-0.4h1.9v0.4
	c0,0.5,0,0.5,0,0.9c0,0.6-0.1,0.8-0.4,1.2C25.6,208.6,25.5,208.6,25.5,208.6z"/>
<path class="st2" d="M28.5,205.3l-0.4,0.3l1.1,1.1H30L28.5,205.3z"/>
<path class="st2" d="M25.7,205.1l-0.4,0.4l1.5,1.5l0.3-0.5L25.7,205.1z"/>
<path class="st3" d="M15.8,255.2L0.9,240.4l2.9-2.9l11.9,11.9l11.8-11.9l2.9,2.9L15.8,255.2z"/>
<path class="st1" d="M15.6,274.2c2.6,0,4.6,2,4.6,4.4s-2.1,4.4-4.6,4.4s-4.6-2-4.6-4.4C11,276.2,13,274.2,15.6,274.2z M15.6,272.5
	c-3.5,0-6.3,2.7-6.3,6.1c0,3.4,2.8,6.1,6.3,6.1s6.3-2.7,6.3-6.1C21.9,275.3,19.1,272.5,15.6,272.5C15.6,272.5,15.6,272.5,15.6,272.5
	z"/>
<path class="st1" d="M10.3,287C10.3,287,10.3,287,10.3,287c0.2-0.1,0.3-0.2,0.4-0.3c0.1,0,0.1-0.1,0.2-0.1c0.2-0.1,0.4-0.2,0.6-0.4
	c0,0,0,0,0,0c0.2-0.1,0.4-0.2,0.7-0.3c0,0,0,0,0,0c0.2-0.1,0.5-0.2,0.7-0.3c0,0,0,0,0,0c0.2-0.1,0.4-0.1,0.7-0.2c0,0,0.1,0,0.1,0
	c0.2-0.1,0.4-0.1,0.6-0.1c0.1,0,0.1,0,0.2,0c0.2,0,0.4-0.1,0.5-0.1c0.1,0,0.2,0,0.3,0c0.2,0,0.4,0,0.7,0c0,0,0.1,0,0.1,0
	c0,0,0,0,0,0s0,0,0,0c2.1,0,4.1,0.7,5.6,1.9c0.3,0.3,0.6,0.6,0.9,0.9c0.1,0.1,0.2,0.2,0.2,0.3c0,0,0,0.1,0.1,0.1
	c0.7,0.9,1.1,1.9,1.2,3.1h1.6c-0.2-4.4-4.4-8-9.7-8s-9.5,3.6-9.7,8h1.5C8,289.6,8.9,288.1,10.3,287z"/>
<g>
	
		<linearGradient id="SVGID_1_" gradientUnits="userSpaceOnUse" x1="9.7398" y1="192.1084" x2="20.7516" y2="216.3187" gradientTransform="matrix(1 0 0 -1 0.138 298.055)">
		<stop  offset="0" style="stop-color:#B000FF"/>
		<stop  offset="1" style="stop-color:#FFF800"/>
	</linearGradient>
	<path class="st4" d="M22,103H9.7c-2.2,0-4-1.8-4-4V86.6c0-2.2,1.8-4,4-4H22c2.2,0,4,1.8,4,4V99C26.1,101.2,24.3,103,22,103z"/>
	<path d="M25.8,91.8c-0.2-0.3-0.8-0.8-1.7-0.5c-0.2,0.1-0.4,0.2-0.6,0.3c0.3-0.5,0.5-0.9,0.6-1.2c0.4-1.2,0.3-2.4-0.3-3.1
		c-0.4-0.5-0.9-0.8-1.6-0.7c-1,0-1.7,0.6-2,1.1c-0.3,0.4-0.3,0.8-0.2,1.2c0.1,0.3,0.3,0.5,0.5,0.6c0.1,0.1,0.1,0.1,0.2,0.2
		c-0.1,0.5-1.2,1.9-1.5,2.4c-0.1,0.1-0.1,0.2-0.2,0.3c-0.3-0.3-0.8-0.6-1.7-0.3c1.7-1.9,2.3-3,2.3-3.8c-0.1-1.6-1.2-2.3-2.1-2.4
		c-0.4,0-1.1,0.1-1.5,0.6c-0.3,0.4-0.4,0.9-0.3,1.4c0,0.2,0.1,0.3,0.1,0.5c0,0.1,0.1,0.2,0.1,0.2c0,0.1-0.1,0.2-0.2,0.3
		c-0.1,0.1-0.1,0.2-0.2,0.3c-0.1,0.1-0.3,0.4-0.6,0.8c-0.1,0.1-0.2,0.2-0.3,0.4c0.3-1.5,0-2.6-0.9-3.1c-1.1-0.7-2.4-0.6-3.7,0.2
		c-0.9,0.6-1.7,1.4-2,1.8c-1,1.2-3.4,5.4-1.2,8.1c0.4,0.5,1,0.8,1.6,0.8c0.1,0,0.1,0,0.2,0c0.9-0.1,1.9-0.7,2.7-1.5
		c0.1,0.5,0.3,1,0.7,1.3c0.4,0.3,1,0.5,1.6,0.5c0.9,0,1.9-0.4,2.8-1c0.5-0.4,1-0.7,1.4-1.1c0.1,0.3,0.4,0.6,0.7,0.8
		c0.5,0.3,1.1,0.5,1.6,0.5c1.2,0,2.3-0.7,3.2-1.4c2.3-1.6,2.9-2.7,3-3.4C26.1,92.5,26,92.1,25.8,91.8z M9.6,91.8
		c0.2-0.3,0.7-0.7,1-0.8c-0.1,0.4-0.4,1-0.9,1.5c-0.3,0.4-0.7,0.8-1.1,1.1C8.8,93.2,9.1,92.5,9.6,91.8z"/>
	<g>
		<defs>
			<path id="XMLID_6_" d="M13.2,87.8c-1.7-1-3.5,0.4-4.6,1.8c-0.9,1.1-3,4.8-1.2,7c1.2,1.5,3.9-1,4.8-2.7
				C13.3,92,14.5,88.5,13.2,87.8z M10.7,92.7c-0.5,0.7-1.9,2-2.4,1.5c-0.8-0.8,0.5-2.8,0.8-3.3c0.5-0.7,1.7-1.6,2.5-1.1
				C12.2,90.1,11.5,91.7,10.7,92.7z"/>
		</defs>
		
			<linearGradient id="XMLID_00000030481268838680873620000002337374311507673484_" gradientUnits="userSpaceOnUse" x1="6.7683" y1="92.1742" x2="13.768" y2="92.1742">
			<stop  offset="0" style="stop-color:#00DC00"/>
			<stop  offset="1" style="stop-color:#FFF800"/>
		</linearGradient>
		<use xlink:href="#XMLID_6_"  style="overflow:visible;fill:url(#XMLID_00000030481268838680873620000002337374311507673484_);"/>
		<clipPath id="XMLID_00000020368560800002732430000002743825537402353814_">
			<use xlink:href="#XMLID_6_"  style="overflow:visible;"/>
		</clipPath>
		
			<linearGradient id="SVGID_00000104691446963359029360000009366061751477041585_" gradientUnits="userSpaceOnUse" x1="8.6129" y1="95.6712" x2="12.677" y2="85.12">
			<stop  offset="0" style="stop-color:#8A00B8"/>
			<stop  offset="0.8757" style="stop-color:#77ACFF"/>
		</linearGradient>
		
			<path style="clip-path:url(#XMLID_00000020368560800002732430000002743825537402353814_);fill:url(#SVGID_00000104691446963359029360000009366061751477041585_);" d="
			M13.3,89.6l0.1-0.6l-0.2,0l0.1-0.5l-0.2,0l0.1-1.2l-0.2,0l-0.2,1.3l-0.3,0l-0.1,0.5h-0.2l0,0.6l-0.3,0l-0.8,5h-0.7l0.4-2.1
			l-2.1,0.7c0,0,1.1-4.9,1.1-5l-1.3,0l-0.5,2l-0.4,1.2l0.3,0l-0.2,0.6L6.5,92l-0.3,3.5l1,1.5l1.7,0.1l2.3-1.4l1.8-2.4l0.5-3.8
			L13.3,89.6z M9,89.1h0.2l-0.1,0.6H8.9L9,89.1z M8.8,90.9H8.6l0.1-0.6h0.2L8.8,90.9z M8.6,89.1h0.2l-0.2,0.6H8.5L8.6,89.1z
			 M8.3,90.3h0.2l-0.2,0.6H8.2L8.3,90.3z M8.1,92.1H7.9L8,91.4h0.2L8.1,92.1z M8.3,92.1l0.1-0.6h0.2l-0.2,0.6H8.3z M11.9,93.6h-0.3
			l0.3-1.5h0.2L11.9,93.6z M12,91.5l0.3-1.5h0.2l-0.2,1.5H12z M12.5,93.6h-0.3l0.2-1.5h0.3L12.5,93.6z M12.9,91.5h-0.3l0.2-1.5H13
			L12.9,91.5z"/>
	</g>
	<g>
		<defs>
			<path id="XMLID_5_" d="M16.6,87.5c-0.2-0.8,0.6-1,1-1c0.6,0,1.2,0.5,1.3,1.6c0.1,1.1-2.8,3.8-3.1,4.3c-0.3,0.4-2,2.5-1.5,2.5
				c1,0,3.4-3.1,4.3-2.1c0.9,1-1.3,2.7-2.6,3.7c-1.3,0.9-2.7,1-3.3,0.5c-1-0.8,0.4-3.6,1.6-5c1.2-1.4,1.9-2.1,2.1-2.5
				c0.2-0.4,0.6-0.7,0.5-1.2C16.7,87.9,16.6,87.6,16.6,87.5z"/>
		</defs>
		
			<linearGradient id="XMLID_00000103253833863994686420000014974344864977260941_" gradientUnits="userSpaceOnUse" x1="12.108" y1="206.2135" x2="18.724" y2="206.2135" gradientTransform="matrix(1 0 0 -1 0.138 298.055)">
			<stop  offset="0" style="stop-color:#00DC00"/>
			<stop  offset="1" style="stop-color:#FFF800"/>
		</linearGradient>
		<use xlink:href="#XMLID_5_"  style="overflow:visible;fill:url(#XMLID_00000103253833863994686420000014974344864977260941_);"/>
		<clipPath id="XMLID_00000115480999446546762990000005232969051051601820_">
			<use xlink:href="#XMLID_5_"  style="overflow:visible;"/>
		</clipPath>
		
			<linearGradient id="SVGID_00000075880880342091488580000007640300295856240547_" gradientUnits="userSpaceOnUse" x1="17.0732" y1="98.663" x2="20.5874" y2="89.5394">
			<stop  offset="0" style="stop-color:#8A00B8"/>
			<stop  offset="0.9188" style="stop-color:#77ACFF"/>
		</linearGradient>
		
			<path style="clip-path:url(#XMLID_00000115480999446546762990000005232969051051601820_);fill:url(#SVGID_00000075880880342091488580000007640300295856240547_);" d="
			M15,96.2h0.4l0,0.6L15,96.9L15,96.2z M15.5,96.2l0.4,0l0,0.3l-0.4,0.2L15.5,96.2z M15.9,95.8h-0.3l0-1.1l0.4,0L15.9,95.8z
			 M15,94.8l0.3,0l0,1l-0.3,0L15,94.8z M14.8,92.5l-0.2,4.6l-0.3,0.1l0.2-5.4l0-0.1l-0.9,0l-0.7,0.8l-0.2,1.8l-0.4,2.4l1.1,0.8
			l1.5-0.3l2-1.1l5.7,0.9l-0.1-4.2l1-0.7l0.2,3.1l2-1.1l0.5-1.9L25,91l-2.8,1l-0.1-2.8h-0.2v-0.5h-0.2v-0.5h-0.3l0-0.4l-1.2,0.9
			l0.7,1.1l-1.2,0.9l-0.8,2.3L17.8,92l0.2,2.9l-1.6,1.3l-0.1-3.7L14.8,92.5L14.8,92.5z M13.1,94.2h-0.3l0.2-1.4l0.3-0.2L13.1,94.2z
			 M12.9,96.7h-0.3l0.2-2.1H13L12.9,96.7z M13.8,96.7h-0.3l0.1-2.1h0.3L13.8,96.7z M13.6,94.2l0.1-1.9l0.3-0.3l-0.1,2.2H13.6z
			 M18.5,94h-0.3l-0.1-1.1l0.3,0.2L18.5,94z M19.9,93.7l0-2.5l0.6-0.4v3L19.9,93.7z M20.9,93.2l0-1.8l0.3,0v1.8H20.9z M21.6,93.2
			l0-1.8l0.3,0v1.8H21.6z M21.6,91.2l0-1.8l0.3,0v1.8H21.6z M24,93.5l-0.3,0l0-1l0.3-0.1L24,93.5z M24,94.4l-0.3,0.2l0-0.7H24
			L24,94.4z M23.1,95.1l-0.5,0.4l-0.1-1.3l0.5,0.1L23.1,95.1z M25.2,92.7h-0.4v-0.9l0.3,0.1L25.2,92.7z"/>
	</g>
	<g>
		<defs>
			<path id="XMLID_4_" d="M21,88.3c-0.1-0.3,0.5-1.1,1.5-1.1c1,0,1.5,1.3,1,2.7c-0.3,1-3.2,4.3-2.8,4.5c0.3,0.1,2-1.4,2.6-1.8
				c0.7-0.5,1.6-1.2,2.1-0.6c0.6,0.7-1.2,2.3-2.5,3.2c-1.2,0.9-2.5,1.7-3.9,0.9c-0.9-0.5-0.2-2.1,1.1-3.8c1.2-1.6,1.8-2.6,1.7-3.1
				C21.5,88.6,21.1,88.5,21,88.3z"/>
		</defs>
		
			<linearGradient id="XMLID_00000068661430615882227850000014417755395229781180_" gradientUnits="userSpaceOnUse" x1="18.4245" y1="206.284" x2="25.3465" y2="206.284" gradientTransform="matrix(1 0 0 -1 0.138 298.055)">
			<stop  offset="0" style="stop-color:#00DC00"/>
			<stop  offset="1" style="stop-color:#FFF800"/>
		</linearGradient>
		<use xlink:href="#XMLID_4_"  style="overflow:visible;fill:url(#XMLID_00000068661430615882227850000014417755395229781180_);"/>
		<clipPath id="XMLID_00000143600308167584513970000015555186268764685492_">
			<use xlink:href="#XMLID_4_"  style="overflow:visible;"/>
		</clipPath>
		
			<linearGradient id="SVGID_00000047051199792714240290000008112734198686120112_" gradientUnits="userSpaceOnUse" x1="18.034" y1="96.2561" x2="22.3819" y2="84.968">
			<stop  offset="0" style="stop-color:#8A00B8"/>
			<stop  offset="0.9188" style="stop-color:#77ACFF"/>
		</linearGradient>
		
			<path style="clip-path:url(#XMLID_00000143600308167584513970000015555186268764685492_);fill:url(#SVGID_00000047051199792714240290000008112734198686120112_);" d="
			M15.1,96.1h0.4l0,0.6l-0.4,0.1L15.1,96.1z M15.6,96l0.4,0l0,0.3l-0.4,0.2L15.6,96z M15.9,95.7h-0.3l0-1.1l0.4,0L15.9,95.7z
			 M15.1,94.7l0.3,0l0,1l-0.3,0L15.1,94.7z M14.9,92.4L14.7,97l-0.3,0.1l0.2-5.4l0-0.1l-0.9,0l-0.7,0.8l-0.2,1.8l-0.4,2.4l1.1,0.8
			l1.5-0.3l2-1.1l5.7,0.9l-0.1-4.2l1-0.7l0.2,3.1l2-1.1l0.5-1.9l-0.9-1.3l-2.8,1L22.2,89H22v-0.5h-0.2V88h-0.3l0-0.4l-1.2,0.9
			l0.7,1.1l-1.2,0.9L19,92.7l-1.1-0.9l0.2,2.9l-1.6,1.3l-0.1-3.7L14.9,92.4L14.9,92.4z M13.2,94.1h-0.3l0.2-1.4l0.3-0.2L13.2,94.1z
			 M12.9,96.6h-0.3l0.2-2.1h0.3L12.9,96.6z M13.8,96.6h-0.3l0.1-2.1h0.3L13.8,96.6z M13.7,94.1l0.1-1.9l0.3-0.3l-0.1,2.2H13.7z
			 M18.5,93.9h-0.3l-0.1-1.1l0.3,0.2L18.5,93.9z M20,93.6l0-2.5l0.6-0.4v3L20,93.6z M21,93.1l0-1.8l0.3,0v1.8H21z M21.7,93.1l0-1.8
			l0.3,0v1.8H21.7z M21.7,91l0-1.8l0.3,0V91H21.7z M24.1,93.4l-0.3,0l0-1l0.3-0.1L24.1,93.4z M24.1,94.3l-0.3,0.2l0-0.7h0.3
			L24.1,94.3z M23.2,94.9l-0.5,0.4l-0.1-1.3l0.5,0.1L23.2,94.9z M25.3,92.5h-0.4v-0.9l0.3,0.1L25.3,92.5z"/>
	</g>
	<path class="st8" d="M18.6,92.7c-0.6-0.7-1.8,0.2-2.8,1.1c-0.6,0.5-1.2,1-1.6,1c0-0.1,0.3-0.6,1.4-2c0.1-0.1,0.1-0.2,0.2-0.3
		c0.1-0.1,0.3-0.3,0.5-0.5l0,0c0.9-1,2.7-2.9,2.6-3.8c-0.1-0.8-0.5-1.6-1.4-1.7c-0.3,0-0.7,0.1-0.9,0.4c-0.2,0.2-0.2,0.5-0.2,0.8
		c0,0.1,0.1,0.2,0.1,0.3l0,0c0,0.1,0.1,0.2,0.1,0.3c0.1,0.3-0.1,0.6-0.3,0.9l0,0v0c-0.1,0.1-0.1,0.2-0.2,0.2
		c-0.1,0.2-0.3,0.4-0.7,0.9l0,0v0c-0.3,0.4-0.8,0.9-1.4,1.6C13,93,12,95,12.1,96.1c0,0.4,0.2,0.6,0.4,0.8c0.3,0.2,0.7,0.3,1.1,0.3
		c0.7,0,1.6-0.3,2.3-0.8c1.3-0.9,2.8-2.1,2.9-3.1C18.9,93.1,18.8,92.9,18.6,92.7z M17,88.1c0-0.1-0.1-0.2-0.2-0.4l0,0l0,0
		c-0.1-0.3-0.3-0.5-0.1-0.8c0.2-0.2,0.5-0.4,0.9-0.3c0.5,0.2,1,0.4,1,1.5c0.1,0.7-1.9,3-2.7,3.9l-0.2,0.2c-1.2,1.4-1.8,2.4-1.8,2.7
		c0,0.1,0,0.2,0.1,0.2c0.3,0.1,1.4-0.6,1.9-1.1c0.9-0.9,1.6-1.3,2-1.3h0c0.2,0,0.3,0.1,0.4,0.2c0.1,0.2,0.2,0.3,0.2,0.5
		c-0.1,0.9-1.8,2.2-2.8,2.9c-1.3,0.9-2.6,0.9-3.1,0.4c-0.8-0.6,0.3-3.2,1.5-4.7c0.6-0.7,1-1.2,1.4-1.6c0-0.1,0.1-0.1,0.2-0.2l0,0
		C16.2,89.6,17,88.8,17,88.1z M13.3,87.7c0.3,0.1,0.4,0.4,0.5,0.7c0.4,1.4-0.7,4.1-1.4,5.4c-0.4,0.7-1,1.5-1.7,2.1
		C10.2,96.3,9.4,97,8.6,97c-0.1,0-0.1,0-0.2,0c-0.4,0-0.8-0.2-1-0.5c-0.8-1-1-2.4-0.5-4c0.4-1.4,1.2-2.6,1.5-3
		C8.5,89.4,11,86.4,13.3,87.7z M12.3,93.5c0.3-0.6,0.7-1.6,1-2.6c0.3-1.2,0.4-2.1,0.1-2.6c-0.1-0.3-0.4-0.5-0.7-0.6
		c-2-0.5-4.1,2-4.2,2.1c-0.7,0.8-2.6,4.5-1.1,6.6c0.2,0.3,0.6,0.4,1.1,0.4c0.6-0.1,1.3-0.5,2.1-1.2C11.4,94.9,12,94.2,12.3,93.5z
		 M9,90.8c0.7-0.9,1.8-1.6,2.6-1.1c0.1,0.1,0.2,0.2,0.3,0.4c0.1,0.6-0.3,1.6-1,2.6c-0.7,0.9-1.6,1.6-2.2,1.6h0c-0.1,0-0.3,0-0.4-0.2
		C7.5,93.2,8.6,91.2,9,90.8z M9.2,91c-0.1,0.2-0.5,0.7-0.7,1.4c-0.2,0.6-0.4,1.4,0,1.8c0.1,0.1,0.2,0.1,0.3,0.1c0.6,0,1.4-1,1.9-1.6
		l0.2-0.3c0.6-0.8,1.1-1.8,0.9-2.2c-0.1-0.3-0.4-0.3-0.6-0.3h0C10.4,89.8,9.6,90.5,9.2,91z M23.4,92.3c0.7-0.5,1.4-1,1.9-0.4
		c0.1,0.1,0.2,0.3,0.1,0.5c-0.1,1-2.2,2.5-2.6,2.8l0,0c-0.8,0.6-1.8,1.3-2.8,1.3c-0.4,0-0.8-0.1-1.3-0.4c-0.2-0.1-0.4-0.4-0.4-0.6
		c-0.1-0.7,0.4-1.8,1.5-3.3c1.2-1.6,1.8-2.6,1.6-3c-0.1-0.3-0.3-0.4-0.4-0.5l0,0c-0.1-0.1-0.2-0.2-0.3-0.3c-0.1-0.1,0-0.3,0.1-0.5
		c0.2-0.3,0.7-0.7,1.4-0.7c0.4,0,0.7,0.1,0.9,0.4c0.4,0.6,0.5,1.5,0.2,2.4c-0.2,0.5-0.8,1.4-1.5,2.3l0,0c-0.4,0.6-1.3,1.8-1.3,2
		c0.2,0,1.2-0.8,1.6-1.2l0,0c0.3-0.3,0.6-0.5,0.8-0.6C23.2,92.4,23.3,92.3,23.4,92.3z M22,89c0.2,0.5-0.5,1.3-1.5,2.8
		c-0.1,0.1-0.2,0.3-0.3,0.4c0,0-0.1,0.1-0.1,0.1c-0.9,1.2-1.4,2.5-1.3,3.1c0,0.2,0.1,0.3,0.3,0.4c1.1,0.6,2.6,0,3.7-0.8
		c1-0.7,2.6-2.3,2.6-2.9c0-0.1,0-0.1-0.1-0.1c-0.6-0.3-2.1,0.8-3.2,1.7c-0.8,0.6-1.3,1-1.5,0.9c0,0-0.1,0-0.1-0.1
		c-0.1-0.3,0.7-1.5,1.4-2.4l0,0c0.6-0.9,1.3-1.8,1.4-2.2c0.3-1.1,0.1-1.8,0-2c-0.1-0.3-0.4-0.6-0.8-0.6c-0.6,0-1.2,0.5-1.2,0.8
		c0,0.2,0.2,0.4,0.4,0.6l0,0l0,0C21.8,88.8,21.9,88.9,22,89z"/>
</g>
</svg>
