<svg id="icon-链家首页个人中心" xmlns="http://www.w3.org/2000/svg" xmlns:xlink="http://www.w3.org/1999/xlink" viewBox="0 0 32 298"><defs><style>.cls-1{fill:#00ae66;}.cls-2{fill:#fff;}.cls-3{fill:#3478f1;}.cls-4{fill:#9c9fa1;}</style></defs><path class="cls-1" d="M15.64,7.21a4.52,4.52,0,0,1,4.63,4.4A4.53,4.53,0,0,1,15.64,16,4.53,4.53,0,0,1,11,11.61,4.51,4.51,0,0,1,15.64,7.21Zm0-1.71A6.23,6.23,0,0,0,9.3,11.61a6.23,6.23,0,0,0,6.34,6.12A6.23,6.23,0,0,0,22,11.61,6.22,6.22,0,0,0,15.64,5.5Z"/><path class="cls-1" d="M16,18a8.82,8.82,0,0,1,5.64,1.94,6.45,6.45,0,0,1,1.94,2.64H8.42a6.54,6.54,0,0,1,1.94-2.64A8.82,8.82,0,0,1,16,18Zm0-1.71c-5.24,0-9.49,3.56-9.65,8h19.3c-.16-4.44-4.42-8-9.65-8Z"/><path class="cls-2" d="M24.25,25c0,3.87-3.67,7-8.2,7s-8.2-3.14-8.2-7,3.68-7,8.2-7S24.25,21.12,24.25,25Z"/><path class="cls-1" d="M23.2,41.16a1,1,0,0,0-1.39,0L9.27,53.49a1,1,0,0,0,0,1.37,1,1,0,0,0,1.4,0L23.2,42.53A1,1,0,0,0,23.2,41.16Z"/><path class="cls-1" d="M10,55.52a1.39,1.39,0,0,1-1-.39,1.35,1.35,0,0,1,0-1.92L21.54,40.89a1.41,1.41,0,0,1,1.93,0,1.34,1.34,0,0,1,0,1.91L10.93,55.13A1.36,1.36,0,0,1,10,55.52ZM22.5,41.26a.63.63,0,0,0-.43.17L9.54,53.76a.58.58,0,0,0,0,.82.62.62,0,0,0,.86,0L22.93,42.26a.59.59,0,0,0,.17-.42.54.54,0,0,0-.17-.4A.6.6,0,0,0,22.5,41.26Z"/><path class="cls-1" d="M23.15,67.59a1,1,0,0,0,0-1.4L10.83,53.65a.94.94,0,0,0-1.36,0,1,1,0,0,0,0,1.39L21.78,67.59A1,1,0,0,0,23.15,67.59Z"/><path class="cls-1" d="M22.46,68.26a1.31,1.31,0,0,1-.95-.4L9.19,55.31a1.36,1.36,0,1,1,1.92-1.93L23.42,65.93a1.39,1.39,0,0,1,0,1.93A1.31,1.31,0,0,1,22.46,68.26ZM10.15,53.74a.58.58,0,0,0-.41.18.61.61,0,0,0,0,.85L22.05,67.32a.58.58,0,0,0,.82,0,.62.62,0,0,0,0-.86L10.56,53.92A.55.55,0,0,0,10.15,53.74Z"/><path class="cls-3" d="M15.64,121.21a4.41,4.41,0,1,1,0,8.81,4.41,4.41,0,1,1,0-8.81Zm0-1.71a6.12,6.12,0,1,0,0,12.23,6.12,6.12,0,1,0,0-12.23Z"/><path class="cls-3" d="M16,132a8.82,8.82,0,0,1,5.64,1.94,6.45,6.45,0,0,1,1.94,2.64H8.42a6.54,6.54,0,0,1,1.94-2.64A8.82,8.82,0,0,1,16,132Zm0-1.71c-5.24,0-9.49,3.56-9.65,8h19.3c-.16-4.44-4.42-8-9.65-8Z"/><path class="cls-2" d="M24.25,139c0,3.87-3.67,7-8.2,7s-8.2-3.14-8.2-7,3.68-7,8.2-7S24.25,135.12,24.25,139Z"/><path class="cls-3" d="M23.2,155.16a1,1,0,0,0-1.39,0L9.27,167.49a1,1,0,0,0,0,1.37,1,1,0,0,0,1.4,0L23.2,156.53A1,1,0,0,0,23.2,155.16Z"/><path class="cls-3" d="M10,169.52a1.39,1.39,0,0,1-1-.39,1.35,1.35,0,0,1,0-1.92l12.54-12.32a1.41,1.41,0,0,1,1.93,0,1.34,1.34,0,0,1,0,1.91L10.93,169.13A1.36,1.36,0,0,1,10,169.52ZM22.5,155.26a.63.63,0,0,0-.43.17L9.54,167.76a.58.58,0,0,0,0,.82.62.62,0,0,0,.86,0l12.53-12.32a.59.59,0,0,0,.17-.42.54.54,0,0,0-.17-.4A.6.6,0,0,0,22.5,155.26Z"/><path class="cls-3" d="M23.15,181.59a1,1,0,0,0,0-1.4L10.83,167.65a.94.94,0,0,0-1.36,0,1,1,0,0,0,0,1.39l12.31,12.55A1,1,0,0,0,23.15,181.59Z"/><path class="cls-3" d="M22.46,182.26a1.31,1.31,0,0,1-.95-.4L9.19,169.31a1.36,1.36,0,1,1,1.92-1.93l12.31,12.55a1.39,1.39,0,0,1,0,1.93A1.31,1.31,0,0,1,22.46,182.26ZM10.15,167.74a.58.58,0,0,0-.41.18.61.61,0,0,0,0,.85l12.31,12.55a.58.58,0,0,0,.82,0,.62.62,0,0,0,0-.86L10.56,167.92A.55.55,0,0,0,10.15,167.74Z"/><path class="cls-3" d="M7,207a.41.41,0,1,1-.41-.42A.41.41,0,0,1,7,207Z"/><path class="cls-3" d="M6.73,204.9,5,203.62a.83.83,0,0,0-.47-.18.86.86,0,0,0-.46.18H4l-1.75,1.26a.64.64,0,0,0-.27.52v2.52a.63.63,0,0,0,.63.63h4a.41.41,0,0,0-.06-.82H2.93a.14.14,0,0,1-.1-.11v0h0v-2c0-.08,0-.11.1-.16l1.39-1,.09-.06h0l.09,0,.09,0h0l1.25.88.26.18a.19.19,0,0,1,.07.13v.28a.41.41,0,1,0,.82,0v-.44A.6.6,0,0,0,6.73,204.9Z"/><path class="cls-3" d="M18.41,208.56l-.92-1.25a.65.65,0,0,1,.05-.86l.59-.59h.69l-.88.87a.23.23,0,0,0,0,.33l1.1,1.49h-.61Zm-2,0h0c0-.15.08-.45.12-.74h0a9.57,9.57,0,0,1-2.39.74v-.46a8.28,8.28,0,0,0,2.44-.81h0a1.34,1.34,0,0,1,0-.21v-.24h0a9.27,9.27,0,0,1-2.45.76v-.45a8.43,8.43,0,0,0,2.42-.8h0c0-.14,0-.28-.07-.4h0a9.23,9.23,0,0,1-2.35.72v-.46a7.57,7.57,0,0,0,2.18-.7H15v-.43h3.08v.43H16.82a4.66,4.66,0,0,1,.21,1.6,9.52,9.52,0,0,1-.16,1.48Zm2.09-3.08v-.81H14.55v.81h-.47v-.95a.29.29,0,0,1,.29-.29h1.85v-.36h.55v.36h1.9a.29.29,0,0,1,.29.29v.95Z"/><path class="cls-3" d="M10.54,208.56c-.45,0-.47-.17-.47-.55v-2.42H9.26v.84h.5v.43h-.5v1.27h.5v.43H9.27c-.42,0-.49-.14-.49-.45v-1.25H8.24v-.43h.54v-.84H8.21l.38-1.71h.46l-.09.4h.8v.43h-.9l-.09.45h1.51a.26.26,0,0,1,.26.22v2.75H12v-.73h-1.1V207H12v-.73h-.89a.21.21,0,0,1-.17-.08.22.22,0,0,1,0-.19l.28-1.26h-.87a.22.22,0,0,1-.21-.15l-.2-.68h.49l.12.4h.77l.09-.4h.47l-.09.4h1.64v.43H11.62l-.24,1.1H12v-.71h.52v.71h.87v.43h-.87V207h.87v.43h-.87v.72h.87v.44Z"/><path class="cls-3" d="M23.8,205.51h0v2.56H21.46v-2.56H23.8Zm0-.45H21.47a.43.43,0,0,0-.47.46v2.56a.44.44,0,0,0,.47.47H23.8a.44.44,0,0,0,.47-.47v-2.56a.43.43,0,0,0-.47-.46Z"/><path class="cls-3" d="M20.74,206.56h3.79V207H20.74Z"/><path class="cls-3" d="M23.16,206.88l-1.51-1.52.41-.22,1.58,1.57Z"/><path class="cls-3" d="M23.32,208.55l-1.67-1.67.37-.27,1.62,1.62Z"/><path class="cls-3" d="M20.11,208.55h-.5l.43-1.14a.69.69,0,0,0,0-.75l-.63-1H20l.45.76a1.05,1.05,0,0,1,.08,1Z"/><path class="cls-3" d="M20,205.2l-.63-1H20l.62,1Z"/><path class="cls-3" d="M21.31,203.88h-.57v.59a.29.29,0,0,0,.29.29h3.51v-.44H21.31Z"/><path class="cls-3" d="M28.13,204h.53v4.52h-.53Z"/><path class="cls-3" d="M25.32,206.39h-.59a4.43,4.43,0,0,0,.7-2.51H26A4.75,4.75,0,0,1,25.32,206.39Z"/><path class="cls-3" d="M25.5,208.55h-.75a23.7,23.7,0,0,0,2.07-2.16c.29-.32.28-.4.28-.85v-.86H25.71v-.44h1.94v1.3a1.35,1.35,0,0,1-.38,1.17A19.79,19.79,0,0,1,25.5,208.55Z"/><path class="cls-3" d="M28.54,205.35l-.36.32,1.13,1.13H30Z"/><path class="cls-3" d="M25.74,205.1l-.36.36,1.54,1.46.28-.45Z"/><path class="cls-4" d="M15.81,255.19,1,240.42l2.9-2.92,12,11.88,11.84-11.87,2.92,2.9Z"/><path class="cls-2" d="M15.59,274.25a4.41,4.41,0,1,1,0,8.81,4.41,4.41,0,1,1,0-8.81Zm0-1.71a6.12,6.12,0,1,0,0,12.23,6.12,6.12,0,1,0,0-12.23Z"/><path class="cls-2" d="M10.26,287l.06-.05.32-.24.16-.12a6.65,6.65,0,0,1,.56-.36l0,0c.22-.12.44-.24.66-.34h0l.68-.28h0l.66-.21.11,0,.59-.13.2,0,.53-.07.27,0,.67,0H16A8.82,8.82,0,0,1,21.6,287a7.41,7.41,0,0,1,.92.94l.22.26a.86.86,0,0,1,.07.1,6.31,6.31,0,0,1,1.24,3.05h1.56c-.16-4.44-4.41-8-9.65-8s-9.49,3.56-9.65,8H7.85A6.62,6.62,0,0,1,10.26,287Z"/><image width="1000" height="1000" transform="translate(6 82) scale(0.02)" xlink:href="../../../../../../../../Downloads/%E8%B5%84%E6%BA%90-1.jpg"/></svg>