<svg xmlns="http://www.w3.org/2000/svg" xmlns:xlink="http://www.w3.org/1999/xlink" id="body_1" preserveAspectRatio="xMinYMin meet" viewBox="0 0 793 1123"><defs><clipPath id="1"><path d="M0 842L0 0L0 0L595 0L595 0L595 842L595 842L0 842z" /></clipPath><clipPath id="2"><path d="M30 84L298 84L298 84L298 69L298 69L30 69z" /></clipPath><clipPath id="3"><path d="M297 84L565 84L565 84L565 69L565 69L297 69z" /></clipPath><clipPath id="4"><path d="M30 98L298 98L298 98L298 83L298 83L30 83z" /></clipPath><clipPath id="5"><path d="M297 98L565 98L565 98L565 83L565 83L297 83z" /></clipPath><clipPath id="6"><path d="M30 112L298 112L298 112L298 97L298 97L30 97z" /></clipPath><clipPath id="7"><path d="M297 112L565 112L565 112L565 97L565 97L297 97z" /></clipPath><clipPath id="8"><path d="M30 127L298 127L298 127L298 111L298 111L30 111z" /></clipPath><clipPath id="9"><path d="M297 127L565 127L565 127L565 111L565 111L297 111z" /></clipPath><clipPath id="10"><path d="M36 227L157 227L157 227L157 198L157 198L36 198z" /></clipPath><clipPath id="11"><path d="M156 227L213 227L213 227L213 198L213 198L156 198z" /></clipPath><clipPath id="12"><path d="M213 227L299 227L299 227L299 198L299 198L213 198z" /></clipPath><clipPath id="13"><path d="M213 227L299 227L299 227L299 198L299 198L213 198z" /></clipPath><clipPath id="14"><path d="M298 227L405 227L405 227L405 198L405 198L298 198z" /></clipPath><clipPath id="15"><path d="M404 227L561 227L561 227L561 198L561 198L404 198z" /></clipPath><clipPath id="16"><path d="M36 242L157 242L157 242L157 227L157 227L36 227z" /></clipPath><clipPath id="17"><path d="M156 242L213 242L213 242L213 227L213 227L156 227z" /></clipPath><clipPath id="18"><path d="M213 242L299 242L299 242L299 227L299 227L213 227z" /></clipPath><clipPath id="19"><path d="M298 242L405 242L405 242L405 227L405 227L298 227z" /></clipPath><clipPath id="20"><path d="M404 242L561 242L561 242L561 227L561 227L404 227z" /></clipPath><clipPath id="21"><path d="M36 257L405 257L405 257L405 241L405 241L36 241z" /></clipPath><clipPath id="22"><path d="M404 257L561 257L561 257L561 241L561 241L404 241z" /></clipPath><clipPath id="23"><path d="M36 271L405 271L405 271L405 256L405 256L36 256z" /></clipPath><clipPath id="24"><path d="M404 271L561 271L561 271L561 256L561 256L404 256z" /></clipPath></defs><g transform="matrix(1.333333 0 0 1.333333 0 0)"><g><g clip-path="url(#1)"><g clip-path="url(#2)"></g><g clip-path="url(#3)"></g><g clip-path="url(#4)"></g><g clip-path="url(#5)"></g><g clip-path="url(#6)"></g><g clip-path="url(#7)"></g><g clip-path="url(#8)"></g><g clip-path="url(#9)"></g><g clip-path="url(#10)"></g><g clip-path="url(#11)"></g><g clip-path="url(#12)"></g><g clip-path="url(#13)"></g><g clip-path="url(#14)"></g><g clip-path="url(#15)"></g><path transform="matrix(1 0 0 -1 0 842)" d="M35.76 644.48L36.24 644.48L36.24 644.48L36.24 644L36.24 644L35.76 644z" stroke="none" fill="#000000" fill-rule="winding" /><path transform="matrix(1 0 0 -1 0 842)" d="M35.76 644.48L36.24 644.48L36.24 644.48L36.24 644L36.24 644L35.76 644z" stroke="none" fill="#000000" fill-rule="winding" /><path transform="matrix(1 0 0 -1 0 842)" d="M36.24 644.48L156.24 644.48L156.24 644.48L156.24 644L156.24 644L36.24 644z" stroke="none" fill="#000000" fill-rule="winding" /><path transform="matrix(1 0 0 -1 0 842)" d="M156.24 644.48L156.72 644.48L156.72 644.48L156.72 644L156.72 644L156.24 644z" stroke="none" fill="#000000" fill-rule="winding" /><path transform="matrix(1 0 0 -1 0 842)" d="M156.72 644.48L212.88 644.48L212.88 644.48L212.88 644L212.88 644L156.72 644z" stroke="none" fill="#000000" fill-rule="winding" /><path transform="matrix(1 0 0 -1 0 842)" d="M212.88 644.48L213.36 644.48L213.36 644.48L213.36 644L213.36 644L212.88 644z" stroke="none" fill="#000000" fill-rule="winding" /><path transform="matrix(1 0 0 -1 0 842)" d="M213.36 644.48L298.08 644.48L298.08 644.48L298.08 644L298.08 644L213.36 644z" stroke="none" fill="#000000" fill-rule="winding" /><path transform="matrix(1 0 0 -1 0 842)" d="M298.08 644.48L298.56 644.48L298.56 644.48L298.56 644L298.56 644L298.08 644z" stroke="none" fill="#000000" fill-rule="winding" /><path transform="matrix(1 0 0 -1 0 842)" d="M298.56 644.48L404.4 644.48L404.4 644.48L404.4 644L404.4 644L298.56 644z" stroke="none" fill="#000000" fill-rule="winding" /><path transform="matrix(1 0 0 -1 0 842)" d="M404.4 644.48L404.88 644.48L404.88 644.48L404.88 644L404.88 644L404.4 644z" stroke="none" fill="#000000" fill-rule="winding" /><path transform="matrix(1 0 0 -1 0 842)" d="M404.88 644.48L560.16 644.48L560.16 644.48L560.16 644L560.16 644L404.88 644z" stroke="none" fill="#000000" fill-rule="winding" /><path transform="matrix(1 0 0 -1 0 842)" d="M560.16 644.48L560.64 644.48L560.64 644.48L560.64 644L560.64 644L560.16 644z" stroke="none" fill="#000000" fill-rule="winding" /><path transform="matrix(1 0 0 -1 0 842)" d="M560.16 644.48L560.64 644.48L560.64 644.48L560.64 644L560.64 644L560.16 644z" stroke="none" fill="#000000" fill-rule="winding" /><path transform="matrix(1 0 0 -1 0 842)" d="M35.76 644L36.24 644L36.24 644L36.24 615.44L36.24 615.44L35.76 615.44z" stroke="none" fill="#000000" fill-rule="winding" /><path transform="matrix(1 0 0 -1 0 842)" d="M156.24 644L156.72 644L156.72 644L156.72 615.44L156.72 615.44L156.24 615.44z" stroke="none" fill="#000000" fill-rule="winding" /><path transform="matrix(1 0 0 -1 0 842)" d="M212.88 644L213.36 644L213.36 644L213.36 615.44L213.36 615.44L212.88 615.44z" stroke="none" fill="#000000" fill-rule="winding" /><path transform="matrix(1 0 0 -1 0 842)" d="M298.08 644L298.56 644L298.56 644L298.56 615.44L298.56 615.44L298.08 615.44z" stroke="none" fill="#000000" fill-rule="winding" /><path transform="matrix(1 0 0 -1 0 842)" d="M404.4 644L404.88 644L404.88 644L404.88 615.44L404.88 615.44L404.4 615.44z" stroke="none" fill="#000000" fill-rule="winding" /><path transform="matrix(1 0 0 -1 0 842)" d="M560.16 644L560.64 644L560.64 644L560.64 615.44L560.64 615.44L560.16 615.44z" stroke="none" fill="#000000" fill-rule="winding" /><g clip-path="url(#16)"></g><g clip-path="url(#17)"></g><g clip-path="url(#18)"></g><g clip-path="url(#19)"></g><g clip-path="url(#20)"></g><path transform="matrix(1 0 0 -1 0 842)" d="M35.76 615.44L36.24 615.44L36.24 615.44L36.24 614.96L36.24 614.96L35.76 614.96z" stroke="none" fill="#000000" fill-rule="winding" /><path transform="matrix(1 0 0 -1 0 842)" d="M36.24 615.44L156.24 615.44L156.24 615.44L156.24 614.96L156.24 614.96L36.24 614.96z" stroke="none" fill="#000000" fill-rule="winding" /><path transform="matrix(1 0 0 -1 0 842)" d="M156.24 615.44L156.72 615.44L156.72 615.44L156.72 614.96L156.72 614.96L156.24 614.96z" stroke="none" fill="#000000" fill-rule="winding" /><path transform="matrix(1 0 0 -1 0 842)" d="M156.72 615.44L212.88 615.44L212.88 615.44L212.88 614.96L212.88 614.96L156.72 614.96z" stroke="none" fill="#000000" fill-rule="winding" /><path transform="matrix(1 0 0 -1 0 842)" d="M212.88 615.44L213.36 615.44L213.36 615.44L213.36 614.96L213.36 614.96L212.88 614.96z" stroke="none" fill="#000000" fill-rule="winding" /><path transform="matrix(1 0 0 -1 0 842)" d="M213.36 615.44L298.08 615.44L298.08 615.44L298.08 614.96L298.08 614.96L213.36 614.96z" stroke="none" fill="#000000" fill-rule="winding" /><path transform="matrix(1 0 0 -1 0 842)" d="M298.08 615.44L298.56 615.44L298.56 615.44L298.56 614.96L298.56 614.96L298.08 614.96z" stroke="none" fill="#000000" fill-rule="winding" /><path transform="matrix(1 0 0 -1 0 842)" d="M298.56 615.44L404.4 615.44L404.4 615.44L404.4 614.96L404.4 614.96L298.56 614.96z" stroke="none" fill="#000000" fill-rule="winding" /><path transform="matrix(1 0 0 -1 0 842)" d="M404.4 615.44L404.88 615.44L404.88 615.44L404.88 614.96L404.88 614.96L404.4 614.96z" stroke="none" fill="#000000" fill-rule="winding" /><path transform="matrix(1 0 0 -1 0 842)" d="M404.88 615.44L560.16 615.44L560.16 615.44L560.16 614.96L560.16 614.96L404.88 614.96z" stroke="none" fill="#000000" fill-rule="winding" /><path transform="matrix(1 0 0 -1 0 842)" d="M560.16 615.44L560.64 615.44L560.64 615.44L560.64 614.96L560.64 614.96L560.16 614.96z" stroke="none" fill="#000000" fill-rule="winding" /><path transform="matrix(1 0 0 -1 0 842)" d="M35.76 614.96L36.24 614.96L36.24 614.96L36.24 600.8L36.24 600.8L35.76 600.8z" stroke="none" fill="#000000" fill-rule="winding" /><path transform="matrix(1 0 0 -1 0 842)" d="M156.24 614.96L156.72 614.96L156.72 614.96L156.72 600.8L156.72 600.8L156.24 600.8z" stroke="none" fill="#000000" fill-rule="winding" /><path transform="matrix(1 0 0 -1 0 842)" d="M212.88 614.96L213.36 614.96L213.36 614.96L213.36 600.8L213.36 600.8L212.88 600.8z" stroke="none" fill="#000000" fill-rule="winding" /><path transform="matrix(1 0 0 -1 0 842)" d="M298.08 614.96L298.56 614.96L298.56 614.96L298.56 600.8L298.56 600.8L298.08 600.8z" stroke="none" fill="#000000" fill-rule="winding" /><path transform="matrix(1 0 0 -1 0 842)" d="M404.4 614.96L404.88 614.96L404.88 614.96L404.88 600.8L404.88 600.8L404.4 600.8z" stroke="none" fill="#000000" fill-rule="winding" /><path transform="matrix(1 0 0 -1 0 842)" d="M560.16 614.96L560.64 614.96L560.64 614.96L560.64 600.8L560.64 600.8L560.16 600.8z" stroke="none" fill="#000000" fill-rule="winding" /><g clip-path="url(#21)"></g><g clip-path="url(#22)"></g><path transform="matrix(1 0 0 -1 0 842)" d="M35.76 600.8L36.24 600.8L36.24 600.8L36.24 600.32L36.24 600.32L35.76 600.32z" stroke="none" fill="#000000" fill-rule="winding" /><path transform="matrix(1 0 0 -1 0 842)" d="M36.24 600.8L156.24 600.8L156.24 600.8L156.24 600.32L156.24 600.32L36.24 600.32z" stroke="none" fill="#000000" fill-rule="winding" /><path transform="matrix(1 0 0 -1 0 842)" d="M156.24 600.8L156.72 600.8L156.72 600.8L156.72 600.32L156.72 600.32L156.24 600.32z" stroke="none" fill="#000000" fill-rule="winding" /><path transform="matrix(1 0 0 -1 0 842)" d="M156.72 600.8L212.88 600.8L212.88 600.8L212.88 600.32L212.88 600.32L156.72 600.32z" stroke="none" fill="#000000" fill-rule="winding" /><path transform="matrix(1 0 0 -1 0 842)" d="M212.88 600.8L213.36 600.8L213.36 600.8L213.36 600.32L213.36 600.32L212.88 600.32z" stroke="none" fill="#000000" fill-rule="winding" /><path transform="matrix(1 0 0 -1 0 842)" d="M213.36 600.8L298.08 600.8L298.08 600.8L298.08 600.32L298.08 600.32L213.36 600.32z" stroke="none" fill="#000000" fill-rule="winding" /><path transform="matrix(1 0 0 -1 0 842)" d="M298.08 600.8L298.56 600.8L298.56 600.8L298.56 600.32L298.56 600.32L298.08 600.32z" stroke="none" fill="#000000" fill-rule="winding" /><path transform="matrix(1 0 0 -1 0 842)" d="M298.56 600.8L404.4 600.8L404.4 600.8L404.4 600.32L404.4 600.32L298.56 600.32z" stroke="none" fill="#000000" fill-rule="winding" /><path transform="matrix(1 0 0 -1 0 842)" d="M404.4 600.8L404.88 600.8L404.88 600.8L404.88 600.32L404.88 600.32L404.4 600.32z" stroke="none" fill="#000000" fill-rule="winding" /><path transform="matrix(1 0 0 -1 0 842)" d="M404.88 600.8L560.16 600.8L560.16 600.8L560.16 600.32L560.16 600.32L404.88 600.32z" stroke="none" fill="#000000" fill-rule="winding" /><path transform="matrix(1 0 0 -1 0 842)" d="M560.16 600.8L560.64 600.8L560.64 600.8L560.64 600.32L560.64 600.32L560.16 600.32z" stroke="none" fill="#000000" fill-rule="winding" /><path transform="matrix(1 0 0 -1 0 842)" d="M35.76 600.32L36.24 600.32L36.24 600.32L36.24 585.92L36.24 585.92L35.76 585.92z" stroke="none" fill="#000000" fill-rule="winding" /><path transform="matrix(1 0 0 -1 0 842)" d="M404.4 600.32L404.88 600.32L404.88 600.32L404.88 585.92L404.88 585.92L404.4 585.92z" stroke="none" fill="#000000" fill-rule="winding" /><path transform="matrix(1 0 0 -1 0 842)" d="M560.16 600.32L560.64 600.32L560.64 600.32L560.64 585.92L560.64 585.92L560.16 585.92z" stroke="none" fill="#000000" fill-rule="winding" /><g clip-path="url(#23)"></g><g clip-path="url(#24)"></g><path transform="matrix(1 0 0 -1 0 842)" d="M35.76 585.92L36.24 585.92L36.24 585.92L36.24 585.44L36.24 585.44L35.76 585.44z" stroke="none" fill="#000000" fill-rule="winding" /><path transform="matrix(1 0 0 -1 0 842)" d="M36.24 585.92L404.4 585.92L404.4 585.92L404.4 585.44L404.4 585.44L36.24 585.44z" stroke="none" fill="#000000" fill-rule="winding" /><path transform="matrix(1 0 0 -1 0 842)" d="M404.4 585.92L404.88 585.92L404.88 585.92L404.88 585.44L404.88 585.44L404.4 585.44z" stroke="none" fill="#000000" fill-rule="winding" /><path transform="matrix(1 0 0 -1 0 842)" d="M404.88 585.92L560.16 585.92L560.16 585.92L560.16 585.44L560.16 585.44L404.88 585.44z" stroke="none" fill="#000000" fill-rule="winding" /><path transform="matrix(1 0 0 -1 0 842)" d="M560.16 585.92L560.64 585.92L560.64 585.92L560.64 585.44L560.64 585.44L560.16 585.44z" stroke="none" fill="#000000" fill-rule="winding" /><path transform="matrix(1 0 0 -1 0 842)" d="M35.76 585.44L36.24 585.44L36.24 585.44L36.24 571.28L36.24 571.28L35.76 571.28z" stroke="none" fill="#000000" fill-rule="winding" /><path transform="matrix(1 0 0 -1 0 842)" d="M35.76 571.28L36.24 571.28L36.24 571.28L36.24 570.8L36.24 570.8L35.76 570.8z" stroke="none" fill="#000000" fill-rule="winding" /><path transform="matrix(1 0 0 -1 0 842)" d="M35.76 571.28L36.24 571.28L36.24 571.28L36.24 570.8L36.24 570.8L35.76 570.8z" stroke="none" fill="#000000" fill-rule="winding" /><path transform="matrix(1 0 0 -1 0 842)" d="M36.24 571.28L404.4 571.28L404.4 571.28L404.4 570.8L404.4 570.8L36.24 570.8z" stroke="none" fill="#000000" fill-rule="winding" /><path transform="matrix(1 0 0 -1 0 842)" d="M404.4 585.44L404.88 585.44L404.88 585.44L404.88 571.28L404.88 571.28L404.4 571.28z" stroke="none" fill="#000000" fill-rule="winding" /><path transform="matrix(1 0 0 -1 0 842)" d="M404.4 571.28L404.88 571.28L404.88 571.28L404.88 570.8L404.88 570.8L404.4 570.8z" stroke="none" fill="#000000" fill-rule="winding" /><path transform="matrix(1 0 0 -1 0 842)" d="M404.88 571.28L560.16 571.28L560.16 571.28L560.16 570.8L560.16 570.8L404.88 570.8z" stroke="none" fill="#000000" fill-rule="winding" /><path transform="matrix(1 0 0 -1 0 842)" d="M560.16 585.44L560.64 585.44L560.64 585.44L560.64 571.28L560.64 571.28L560.16 571.28z" stroke="none" fill="#000000" fill-rule="winding" /><path transform="matrix(1 0 0 -1 0 842)" d="M560.16 571.28L560.64 571.28L560.64 571.28L560.64 570.8L560.64 570.8L560.16 570.8z" stroke="none" fill="#000000" fill-rule="winding" /><path transform="matrix(1 0 0 -1 0 842)" d="M560.16 571.28L560.64 571.28L560.64 571.28L560.64 570.8L560.64 570.8L560.16 570.8z" stroke="none" fill="#000000" fill-rule="winding" /><path transform="matrix(1 0 0 -1 0 842)" d="M168.24 386.96L217.68 386.96L217.68 386.96L217.68 386.48L217.68 386.48L168.24 386.48z" stroke="none" fill="#000000" fill-rule="winding" /><path transform="matrix(1 0 0 -1 0 842)" d="M338.64 315.68L388.08 315.68L388.08 315.68L388.08 315.2L388.08 315.2L338.64 315.2z" stroke="none" fill="#000000" fill-rule="winding" /><path transform="matrix(1 0 0 -1 0 842)" d="M426.48 315.68L476.16 315.68L476.16 315.68L476.16 315.2L476.16 315.2L426.48 315.2z" stroke="none" fill="#000000" fill-rule="winding" /><path transform="matrix(1 0 0 -1 0 842)" d="M74.64 215.84L184.56 215.84L184.56 215.84L184.56 215.36L184.56 215.36L74.64 215.36z" stroke="none" fill="#000000" fill-rule="winding" /><path transform="matrix(1 0 0 -1 0 842)" d="M118.8 201.68L349.44 201.68L349.44 201.68L349.44 201.2L349.44 201.2L118.8 201.2z" stroke="none" fill="#000000" fill-rule="winding" /></g></g></g></svg>