<svg xmlns="http://www.w3.org/2000/svg" xmlns:xlink="http://www.w3.org/1999/xlink" id="body_2" preserveAspectRatio="xMinYMin meet" viewBox="0 0 793 1123"><defs><clipPath id="1"><path d="M0 842L0 0L0 0L595 0L595 0L595 842L595 842L0 842z" /></clipPath><clipPath id="2"><path d="M36 119L185 119L185 119L185 101L185 101L36 101z" /></clipPath><clipPath id="3"><path d="M185 119L570 119L570 119L570 101L570 101L185 101z" /></clipPath><clipPath id="4"><path d="M36 136L185 136L185 136L185 118L185 118L36 118z" /></clipPath><clipPath id="5"><path d="M185 136L570 136L570 136L570 118L570 118L185 118z" /></clipPath><clipPath id="6"><path d="M36 154L185 154L185 154L185 136L185 136L36 136z" /></clipPath><clipPath id="7"><path d="M185 154L570 154L570 154L570 136L570 136L185 136z" /></clipPath><clipPath id="8"><path d="M36 171L185 171L185 171L185 153L185 153L36 153z" /></clipPath><clipPath id="9"><path d="M185 171L570 171L570 171L570 153L570 153L185 153z" /></clipPath><clipPath id="10"><path d="M36 189L185 189L185 189L185 171L185 171L36 171z" /></clipPath><clipPath id="11"><path d="M185 189L570 189L570 189L570 171L570 171L185 171z" /></clipPath><clipPath id="12"><path d="M36 207L185 207L185 207L185 188L185 188L36 188z" /></clipPath><clipPath id="13"><path d="M185 207L570 207L570 207L570 188L570 188L185 188z" /></clipPath><clipPath id="14"><path d="M36 224L185 224L185 224L185 206L185 206L36 206z" /></clipPath><clipPath id="15"><path d="M185 224L570 224L570 224L570 206L570 206L185 206z" /></clipPath><clipPath id="16"><path d="M36 239L185 239L185 239L185 224L185 224L36 224z" /></clipPath><clipPath id="17"><path d="M185 239L570 239L570 239L570 224L570 224L185 224z" /></clipPath><clipPath id="18"><path d="M36 268L185 268L185 268L185 238L185 238L36 238z" /></clipPath><clipPath id="19"><path d="M185 268L570 268L570 268L570 238L570 238L185 238z" /></clipPath><clipPath id="20"><path d="M36 292L570 292L570 292L570 267L570 267L36 267z" /></clipPath></defs><g transform="matrix(1.333333 0 0 1.333333 0 0)"><g><g clip-path="url(#1)"><g clip-path="url(#2)"></g><g clip-path="url(#3)"></g><path transform="matrix(1 0 0 -1 0 842)" d="M35.76 741.2L36.24 741.2L36.24 741.2L36.24 740.72L36.24 740.72L35.76 740.72z" stroke="none" fill="#000000" fill-rule="winding" /><path transform="matrix(1 0 0 -1 0 842)" d="M35.76 741.2L36.24 741.2L36.24 741.2L36.24 740.72L36.24 740.72L35.76 740.72z" stroke="none" fill="#000000" fill-rule="winding" /><path transform="matrix(1 0 0 -1 0 842)" d="M36.24 741.2L184.56 741.2L184.56 741.2L184.56 740.72L184.56 740.72L36.24 740.72z" stroke="none" fill="#000000" fill-rule="winding" /><path transform="matrix(1 0 0 -1 0 842)" d="M184.56 741.2L185.04 741.2L185.04 741.2L185.04 740.72L185.04 740.72L184.56 740.72z" stroke="none" fill="#000000" fill-rule="winding" /><path transform="matrix(1 0 0 -1 0 842)" d="M185.04 741.2L569.04 741.2L569.04 741.2L569.04 740.72L569.04 740.72L185.04 740.72z" stroke="none" fill="#000000" fill-rule="winding" /><path transform="matrix(1 0 0 -1 0 842)" d="M569.04 741.2L569.52 741.2L569.52 741.2L569.52 740.72L569.52 740.72L569.04 740.72z" stroke="none" fill="#000000" fill-rule="winding" /><path transform="matrix(1 0 0 -1 0 842)" d="M569.04 741.2L569.52 741.2L569.52 741.2L569.52 740.72L569.52 740.72L569.04 740.72z" stroke="none" fill="#000000" fill-rule="winding" /><path transform="matrix(1 0 0 -1 0 842)" d="M35.76 740.72L36.24 740.72L36.24 740.72L36.24 723.68L36.24 723.68L35.76 723.68z" stroke="none" fill="#000000" fill-rule="winding" /><path transform="matrix(1 0 0 -1 0 842)" d="M184.56 740.72L185.04 740.72L185.04 740.72L185.04 723.68L185.04 723.68L184.56 723.68z" stroke="none" fill="#000000" fill-rule="winding" /><path transform="matrix(1 0 0 -1 0 842)" d="M569.04 740.72L569.52 740.72L569.52 740.72L569.52 723.68L569.52 723.68L569.04 723.68z" stroke="none" fill="#000000" fill-rule="winding" /><g clip-path="url(#4)"></g><g clip-path="url(#5)"></g><path transform="matrix(1 0 0 -1 0 842)" d="M35.76 723.68L36.24 723.68L36.24 723.68L36.24 723.2L36.24 723.2L35.76 723.2z" stroke="none" fill="#000000" fill-rule="winding" /><path transform="matrix(1 0 0 -1 0 842)" d="M36.24 723.68L184.56 723.68L184.56 723.68L184.56 723.2L184.56 723.2L36.24 723.2z" stroke="none" fill="#000000" fill-rule="winding" /><path transform="matrix(1 0 0 -1 0 842)" d="M184.56 723.68L185.04 723.68L185.04 723.68L185.04 723.2L185.04 723.2L184.56 723.2z" stroke="none" fill="#000000" fill-rule="winding" /><path transform="matrix(1 0 0 -1 0 842)" d="M185.04 723.68L569.04 723.68L569.04 723.68L569.04 723.2L569.04 723.2L185.04 723.2z" stroke="none" fill="#000000" fill-rule="winding" /><path transform="matrix(1 0 0 -1 0 842)" d="M569.04 723.68L569.52 723.68L569.52 723.68L569.52 723.2L569.52 723.2L569.04 723.2z" stroke="none" fill="#000000" fill-rule="winding" /><path transform="matrix(1 0 0 -1 0 842)" d="M35.76 723.2L36.24 723.2L36.24 723.2L36.24 706.16L36.24 706.16L35.76 706.16z" stroke="none" fill="#000000" fill-rule="winding" /><path transform="matrix(1 0 0 -1 0 842)" d="M184.56 723.2L185.04 723.2L185.04 723.2L185.04 706.16L185.04 706.16L184.56 706.16z" stroke="none" fill="#000000" fill-rule="winding" /><path transform="matrix(1 0 0 -1 0 842)" d="M569.04 723.2L569.52 723.2L569.52 723.2L569.52 706.16L569.52 706.16L569.04 706.16z" stroke="none" fill="#000000" fill-rule="winding" /><g clip-path="url(#6)"></g><g clip-path="url(#7)"></g><path transform="matrix(1 0 0 -1 0 842)" d="M35.76 706.16L36.24 706.16L36.24 706.16L36.24 705.68L36.24 705.68L35.76 705.68z" stroke="none" fill="#000000" fill-rule="winding" /><path transform="matrix(1 0 0 -1 0 842)" d="M36.24 706.16L184.56 706.16L184.56 706.16L184.56 705.68L184.56 705.68L36.24 705.68z" stroke="none" fill="#000000" fill-rule="winding" /><path transform="matrix(1 0 0 -1 0 842)" d="M184.56 706.16L185.04 706.16L185.04 706.16L185.04 705.68L185.04 705.68L184.56 705.68z" stroke="none" fill="#000000" fill-rule="winding" /><path transform="matrix(1 0 0 -1 0 842)" d="M185.04 706.16L569.04 706.16L569.04 706.16L569.04 705.68L569.04 705.68L185.04 705.68z" stroke="none" fill="#000000" fill-rule="winding" /><path transform="matrix(1 0 0 -1 0 842)" d="M569.04 706.16L569.52 706.16L569.52 706.16L569.52 705.68L569.52 705.68L569.04 705.68z" stroke="none" fill="#000000" fill-rule="winding" /><path transform="matrix(1 0 0 -1 0 842)" d="M35.76 705.68L36.24 705.68L36.24 705.68L36.24 688.64L36.24 688.64L35.76 688.64z" stroke="none" fill="#000000" fill-rule="winding" /><path transform="matrix(1 0 0 -1 0 842)" d="M184.56 705.68L185.04 705.68L185.04 705.68L185.04 688.64L185.04 688.64L184.56 688.64z" stroke="none" fill="#000000" fill-rule="winding" /><path transform="matrix(1 0 0 -1 0 842)" d="M569.04 705.68L569.52 705.68L569.52 705.68L569.52 688.64L569.52 688.64L569.04 688.64z" stroke="none" fill="#000000" fill-rule="winding" /><g clip-path="url(#8)"></g><g clip-path="url(#9)"></g><path transform="matrix(1 0 0 -1 0 842)" d="M35.76 688.64L36.24 688.64L36.24 688.64L36.24 688.16L36.24 688.16L35.76 688.16z" stroke="none" fill="#000000" fill-rule="winding" /><path transform="matrix(1 0 0 -1 0 842)" d="M36.24 688.64L184.56 688.64L184.56 688.64L184.56 688.16L184.56 688.16L36.24 688.16z" stroke="none" fill="#000000" fill-rule="winding" /><path transform="matrix(1 0 0 -1 0 842)" d="M184.56 688.64L185.04 688.64L185.04 688.64L185.04 688.16L185.04 688.16L184.56 688.16z" stroke="none" fill="#000000" fill-rule="winding" /><path transform="matrix(1 0 0 -1 0 842)" d="M185.04 688.64L569.04 688.64L569.04 688.64L569.04 688.16L569.04 688.16L185.04 688.16z" stroke="none" fill="#000000" fill-rule="winding" /><path transform="matrix(1 0 0 -1 0 842)" d="M569.04 688.64L569.52 688.64L569.52 688.64L569.52 688.16L569.52 688.16L569.04 688.16z" stroke="none" fill="#000000" fill-rule="winding" /><path transform="matrix(1 0 0 -1 0 842)" d="M35.76 688.16L36.24 688.16L36.24 688.16L36.24 671.12L36.24 671.12L35.76 671.12z" stroke="none" fill="#000000" fill-rule="winding" /><path transform="matrix(1 0 0 -1 0 842)" d="M184.56 688.16L185.04 688.16L185.04 688.16L185.04 671.12L185.04 671.12L184.56 671.12z" stroke="none" fill="#000000" fill-rule="winding" /><path transform="matrix(1 0 0 -1 0 842)" d="M569.04 688.16L569.52 688.16L569.52 688.16L569.52 671.12L569.52 671.12L569.04 671.12z" stroke="none" fill="#000000" fill-rule="winding" /><g clip-path="url(#10)"></g><g clip-path="url(#11)"></g><path transform="matrix(1 0 0 -1 0 842)" d="M35.76 671.12L36.24 671.12L36.24 671.12L36.24 670.64L36.24 670.64L35.76 670.64z" stroke="none" fill="#000000" fill-rule="winding" /><path transform="matrix(1 0 0 -1 0 842)" d="M36.24 671.12L184.56 671.12L184.56 671.12L184.56 670.64L184.56 670.64L36.24 670.64z" stroke="none" fill="#000000" fill-rule="winding" /><path transform="matrix(1 0 0 -1 0 842)" d="M184.56 671.12L185.04 671.12L185.04 671.12L185.04 670.64L185.04 670.64L184.56 670.64z" stroke="none" fill="#000000" fill-rule="winding" /><path transform="matrix(1 0 0 -1 0 842)" d="M185.04 671.12L569.04 671.12L569.04 671.12L569.04 670.64L569.04 670.64L185.04 670.64z" stroke="none" fill="#000000" fill-rule="winding" /><path transform="matrix(1 0 0 -1 0 842)" d="M569.04 671.12L569.52 671.12L569.52 671.12L569.52 670.64L569.52 670.64L569.04 670.64z" stroke="none" fill="#000000" fill-rule="winding" /><path transform="matrix(1 0 0 -1 0 842)" d="M35.76 670.64L36.24 670.64L36.24 670.64L36.24 653.6L36.24 653.6L35.76 653.6z" stroke="none" fill="#000000" fill-rule="winding" /><path transform="matrix(1 0 0 -1 0 842)" d="M184.56 670.64L185.04 670.64L185.04 670.64L185.04 653.6L185.04 653.6L184.56 653.6z" stroke="none" fill="#000000" fill-rule="winding" /><path transform="matrix(1 0 0 -1 0 842)" d="M569.04 670.64L569.52 670.64L569.52 670.64L569.52 653.6L569.52 653.6L569.04 653.6z" stroke="none" fill="#000000" fill-rule="winding" /><g clip-path="url(#12)"></g><g clip-path="url(#13)"></g><path transform="matrix(1 0 0 -1 0 842)" d="M35.76 653.6L36.24 653.6L36.24 653.6L36.24 653.12L36.24 653.12L35.76 653.12z" stroke="none" fill="#000000" fill-rule="winding" /><path transform="matrix(1 0 0 -1 0 842)" d="M36.24 653.6L184.56 653.6L184.56 653.6L184.56 653.12L184.56 653.12L36.24 653.12z" stroke="none" fill="#000000" fill-rule="winding" /><path transform="matrix(1 0 0 -1 0 842)" d="M184.56 653.6L185.04 653.6L185.04 653.6L185.04 653.12L185.04 653.12L184.56 653.12z" stroke="none" fill="#000000" fill-rule="winding" /><path transform="matrix(1 0 0 -1 0 842)" d="M185.04 653.6L569.04 653.6L569.04 653.6L569.04 653.12L569.04 653.12L185.04 653.12z" stroke="none" fill="#000000" fill-rule="winding" /><path transform="matrix(1 0 0 -1 0 842)" d="M569.04 653.6L569.52 653.6L569.52 653.6L569.52 653.12L569.52 653.12L569.04 653.12z" stroke="none" fill="#000000" fill-rule="winding" /><path transform="matrix(1 0 0 -1 0 842)" d="M35.76 653.12L36.24 653.12L36.24 653.12L36.24 636.08L36.24 636.08L35.76 636.08z" stroke="none" fill="#000000" fill-rule="winding" /><path transform="matrix(1 0 0 -1 0 842)" d="M184.56 653.12L185.04 653.12L185.04 653.12L185.04 636.08L185.04 636.08L184.56 636.08z" stroke="none" fill="#000000" fill-rule="winding" /><path transform="matrix(1 0 0 -1 0 842)" d="M569.04 653.12L569.52 653.12L569.52 653.12L569.52 636.08L569.52 636.08L569.04 636.08z" stroke="none" fill="#000000" fill-rule="winding" /><g clip-path="url(#14)"></g><g clip-path="url(#15)"></g><path transform="matrix(1 0 0 -1 0 842)" d="M35.76 636.08L36.24 636.08L36.24 636.08L36.24 635.6L36.24 635.6L35.76 635.6z" stroke="none" fill="#000000" fill-rule="winding" /><path transform="matrix(1 0 0 -1 0 842)" d="M36.24 636.08L184.56 636.08L184.56 636.08L184.56 635.6L184.56 635.6L36.24 635.6z" stroke="none" fill="#000000" fill-rule="winding" /><path transform="matrix(1 0 0 -1 0 842)" d="M184.56 636.08L185.04 636.08L185.04 636.08L185.04 635.6L185.04 635.6L184.56 635.6z" stroke="none" fill="#000000" fill-rule="winding" /><path transform="matrix(1 0 0 -1 0 842)" d="M185.04 636.08L569.04 636.08L569.04 636.08L569.04 635.6L569.04 635.6L185.04 635.6z" stroke="none" fill="#000000" fill-rule="winding" /><path transform="matrix(1 0 0 -1 0 842)" d="M569.04 636.08L569.52 636.08L569.52 636.08L569.52 635.6L569.52 635.6L569.04 635.6z" stroke="none" fill="#000000" fill-rule="winding" /><path transform="matrix(1 0 0 -1 0 842)" d="M35.76 635.6L36.24 635.6L36.24 635.6L36.24 618.56L36.24 618.56L35.76 618.56z" stroke="none" fill="#000000" fill-rule="winding" /><path transform="matrix(1 0 0 -1 0 842)" d="M184.56 635.6L185.04 635.6L185.04 635.6L185.04 618.56L185.04 618.56L184.56 618.56z" stroke="none" fill="#000000" fill-rule="winding" /><path transform="matrix(1 0 0 -1 0 842)" d="M569.04 635.6L569.52 635.6L569.52 635.6L569.52 618.56L569.52 618.56L569.04 618.56z" stroke="none" fill="#000000" fill-rule="winding" /><g clip-path="url(#16)"></g><g clip-path="url(#17)"></g><path transform="matrix(1 0 0 -1 0 842)" d="M35.76 618.56L36.24 618.56L36.24 618.56L36.24 618.08L36.24 618.08L35.76 618.08z" stroke="none" fill="#000000" fill-rule="winding" /><path transform="matrix(1 0 0 -1 0 842)" d="M36.24 618.56L184.56 618.56L184.56 618.56L184.56 618.08L184.56 618.08L36.24 618.08z" stroke="none" fill="#000000" fill-rule="winding" /><path transform="matrix(1 0 0 -1 0 842)" d="M184.56 618.56L185.04 618.56L185.04 618.56L185.04 618.08L185.04 618.08L184.56 618.08z" stroke="none" fill="#000000" fill-rule="winding" /><path transform="matrix(1 0 0 -1 0 842)" d="M185.04 618.56L569.04 618.56L569.04 618.56L569.04 618.08L569.04 618.08L185.04 618.08z" stroke="none" fill="#000000" fill-rule="winding" /><path transform="matrix(1 0 0 -1 0 842)" d="M569.04 618.56L569.52 618.56L569.52 618.56L569.52 618.08L569.52 618.08L569.04 618.08z" stroke="none" fill="#000000" fill-rule="winding" /><path transform="matrix(1 0 0 -1 0 842)" d="M35.76 618.08L36.24 618.08L36.24 618.08L36.24 603.92L36.24 603.92L35.76 603.92z" stroke="none" fill="#000000" fill-rule="winding" /><path transform="matrix(1 0 0 -1 0 842)" d="M184.56 618.08L185.04 618.08L185.04 618.08L185.04 603.92L185.04 603.92L184.56 603.92z" stroke="none" fill="#000000" fill-rule="winding" /><path transform="matrix(1 0 0 -1 0 842)" d="M569.04 618.08L569.52 618.08L569.52 618.08L569.52 603.92L569.52 603.92L569.04 603.92z" stroke="none" fill="#000000" fill-rule="winding" /><g clip-path="url(#18)"></g><g clip-path="url(#19)"></g><path transform="matrix(1 0 0 -1 0 842)" d="M35.76 603.92L36.24 603.92L36.24 603.92L36.24 603.44L36.24 603.44L35.76 603.44z" stroke="none" fill="#000000" fill-rule="winding" /><path transform="matrix(1 0 0 -1 0 842)" d="M36.24 603.92L184.56 603.92L184.56 603.92L184.56 603.44L184.56 603.44L36.24 603.44z" stroke="none" fill="#000000" fill-rule="winding" /><path transform="matrix(1 0 0 -1 0 842)" d="M184.56 603.92L185.04 603.92L185.04 603.92L185.04 603.44L185.04 603.44L184.56 603.44z" stroke="none" fill="#000000" fill-rule="winding" /><path transform="matrix(1 0 0 -1 0 842)" d="M185.04 603.92L569.04 603.92L569.04 603.92L569.04 603.44L569.04 603.44L185.04 603.44z" stroke="none" fill="#000000" fill-rule="winding" /><path transform="matrix(1 0 0 -1 0 842)" d="M569.04 603.92L569.52 603.92L569.52 603.92L569.52 603.44L569.52 603.44L569.04 603.44z" stroke="none" fill="#000000" fill-rule="winding" /><path transform="matrix(1 0 0 -1 0 842)" d="M35.76 603.44L36.24 603.44L36.24 603.44L36.24 574.88L36.24 574.88L35.76 574.88z" stroke="none" fill="#000000" fill-rule="winding" /><path transform="matrix(1 0 0 -1 0 842)" d="M184.56 603.44L185.04 603.44L185.04 603.44L185.04 574.88L185.04 574.88L184.56 574.88z" stroke="none" fill="#000000" fill-rule="winding" /><path transform="matrix(1 0 0 -1 0 842)" d="M569.04 603.44L569.52 603.44L569.52 603.44L569.52 574.88L569.52 574.88L569.04 574.88z" stroke="none" fill="#000000" fill-rule="winding" /><g clip-path="url(#20)"></g><path transform="matrix(1 0 0 -1 0 842)" d="M35.76 574.88L36.24 574.88L36.24 574.88L36.24 574.4L36.24 574.4L35.76 574.4z" stroke="none" fill="#000000" fill-rule="winding" /><path transform="matrix(1 0 0 -1 0 842)" d="M36.24 574.88L184.56 574.88L184.56 574.88L184.56 574.4L184.56 574.4L36.24 574.4z" stroke="none" fill="#000000" fill-rule="winding" /><path transform="matrix(1 0 0 -1 0 842)" d="M184.56 574.88L185.04 574.88L185.04 574.88L185.04 574.4L185.04 574.4L184.56 574.4z" stroke="none" fill="#000000" fill-rule="winding" /><path transform="matrix(1 0 0 -1 0 842)" d="M185.04 574.88L569.04 574.88L569.04 574.88L569.04 574.4L569.04 574.4L185.04 574.4z" stroke="none" fill="#000000" fill-rule="winding" /><path transform="matrix(1 0 0 -1 0 842)" d="M569.04 574.88L569.52 574.88L569.52 574.88L569.52 574.4L569.52 574.4L569.04 574.4z" stroke="none" fill="#000000" fill-rule="winding" /><path transform="matrix(1 0 0 -1 0 842)" d="M35.76 574.4L36.24 574.4L36.24 574.4L36.24 550.88L36.24 550.88L35.76 550.88z" stroke="none" fill="#000000" fill-rule="winding" /><path transform="matrix(1 0 0 -1 0 842)" d="M35.76 550.88L36.24 550.88L36.24 550.88L36.24 550.4L36.24 550.4L35.76 550.4z" stroke="none" fill="#000000" fill-rule="winding" /><path transform="matrix(1 0 0 -1 0 842)" d="M35.76 550.88L36.24 550.88L36.24 550.88L36.24 550.4L36.24 550.4L35.76 550.4z" stroke="none" fill="#000000" fill-rule="winding" /><path transform="matrix(1 0 0 -1 0 842)" d="M36.24 550.88L569.04 550.88L569.04 550.88L569.04 550.4L569.04 550.4L36.24 550.4z" stroke="none" fill="#000000" fill-rule="winding" /><path transform="matrix(1 0 0 -1 0 842)" d="M569.04 574.4L569.52 574.4L569.52 574.4L569.52 550.88L569.52 550.88L569.04 550.88z" stroke="none" fill="#000000" fill-rule="winding" /><path transform="matrix(1 0 0 -1 0 842)" d="M569.04 550.88L569.52 550.88L569.52 550.88L569.52 550.4L569.52 550.4L569.04 550.4z" stroke="none" fill="#000000" fill-rule="winding" /><path transform="matrix(1 0 0 -1 0 842)" d="M569.04 550.88L569.52 550.88L569.52 550.88L569.52 550.4L569.52 550.4L569.04 550.4z" stroke="none" fill="#000000" fill-rule="winding" /></g></g></g></svg>