<svg xmlns="http://www.w3.org/2000/svg" xmlns:xlink="http://www.w3.org/1999/xlink" id="body_1" preserveAspectRatio="xMinYMin meet" viewBox="0 0 793 1121"><defs><clipPath id="1"><path d="M0 841L0 -0.9199829L0 -0.9199829L595.32 -0.9199829L595.32 -0.9199829L595.32 841L595.32 841L0 841z" /></clipPath><clipPath id="2"><path d="M8.871E-06 841L595.32 841L595.32 841L595.32 -0.9199829L595.32 -0.9199829L8.871E-06 -0.9199829z" /></clipPath><clipPath id="3"><path d="M8.871E-06 841L595.32 841L595.32 841L595.32 -0.9199829L595.32 -0.9199829L8.871E-06 -0.9199829z" /></clipPath><clipPath id="4"><path d="M8.871E-06 841L595.32 841L595.32 841L595.32 -0.9199829L595.32 -0.9199829L8.871E-06 -0.9199829z" /></clipPath><clipPath id="5"><path d="M8.871E-06 841L595.32 841L595.32 841L595.32 -0.9199829L595.32 -0.9199829L8.871E-06 -0.9199829z" /></clipPath><clipPath id="6"><path d="M8.871E-06 841L595.32 841L595.32 841L595.32 -0.9199829L595.32 -0.9199829L8.871E-06 -0.9199829z" /></clipPath><clipPath id="7"><path d="M8.871E-06 841L595.32 841L595.32 841L595.32 -0.9199829L595.32 -0.9199829L8.871E-06 -0.9199829z" /></clipPath><clipPath id="8"><path d="M8.871E-06 841L595.32 841L595.32 841L595.32 -0.9199829L595.32 -0.9199829L8.871E-06 -0.9199829z" /></clipPath><clipPath id="9"><path d="M8.871E-06 841L595.32 841L595.32 841L595.32 -0.9199829L595.32 -0.9199829L8.871E-06 -0.9199829z" /></clipPath><clipPath id="10"><path d="M8.871E-06 841L595.32 841L595.32 841L595.32 -0.9199829L595.32 -0.9199829L8.871E-06 -0.9199829z" /></clipPath><clipPath id="11"><path d="M8.871E-06 841L595.32 841L595.32 841L595.32 -0.9199829L595.32 -0.9199829L8.871E-06 -0.9199829z" /></clipPath><clipPath id="12"><path d="M8.871E-06 841L595.32 841L595.32 841L595.32 -0.9199829L595.32 -0.9199829L8.871E-06 -0.9199829z" /></clipPath><clipPath id="13"><path d="M8.871E-06 841L595.32 841L595.32 841L595.32 -0.9199829L595.32 -0.9199829L8.871E-06 -0.9199829z" /></clipPath><clipPath id="14"><path d="M8.871E-06 841L595.32 841L595.32 841L595.32 -0.9199829L595.32 -0.9199829L8.871E-06 -0.9199829z" /></clipPath><clipPath id="15"><path d="M8.871E-06 841L595.32 841L595.32 841L595.32 -0.9199829L595.32 -0.9199829L8.871E-06 -0.9199829z" /></clipPath><clipPath id="16"><path d="M8.871E-06 841L595.32 841L595.32 841L595.32 -0.9199829L595.32 -0.9199829L8.871E-06 -0.9199829z" /></clipPath><clipPath id="17"><path d="M8.871E-06 841L595.32 841L595.32 841L595.32 -0.9199829L595.32 -0.9199829L8.871E-06 -0.9199829z" /></clipPath><clipPath id="18"><path d="M8.871E-06 841L595.32 841L595.32 841L595.32 -0.9199829L595.32 -0.9199829L8.871E-06 -0.9199829z" /></clipPath><clipPath id="19"><path d="M8.871E-06 841L595.32 841L595.32 841L595.32 -0.9199829L595.32 -0.9199829L8.871E-06 -0.9199829z" /></clipPath><clipPath id="20"><path d="M8.871E-06 841L595.32 841L595.32 841L595.32 -0.9199829L595.32 -0.9199829L8.871E-06 -0.9199829z" /></clipPath><clipPath id="21"><path d="M8.871E-06 841L595.32 841L595.32 841L595.32 -0.9199829L595.32 -0.9199829L8.871E-06 -0.9199829z" /></clipPath><clipPath id="22"><path d="M8.871E-06 841L595.32 841L595.32 841L595.32 -0.9199829L595.32 -0.9199829L8.871E-06 -0.9199829z" /></clipPath><clipPath id="23"><path d="M8.871E-06 841L595.32 841L595.32 841L595.32 -0.9199829L595.32 -0.9199829L8.871E-06 -0.9199829z" /></clipPath><clipPath id="24"><path d="M8.871E-06 841L595.32 841L595.32 841L595.32 -0.9199829L595.32 -0.9199829L8.871E-06 -0.9199829z" /></clipPath><clipPath id="25"><path d="M8.871E-06 841L595.32 841L595.32 841L595.32 -0.9199829L595.32 -0.9199829L8.871E-06 -0.9199829z" /></clipPath><clipPath id="26"><path d="M8.871E-06 841L595.32 841L595.32 841L595.32 -0.9199829L595.32 -0.9199829L8.871E-06 -0.9199829z" /></clipPath><clipPath id="27"><path d="M8.871E-06 841L595.32 841L595.32 841L595.32 -0.9199829L595.32 -0.9199829L8.871E-06 -0.9199829z" /></clipPath><clipPath id="28"><path d="M8.871E-06 841L595.32 841L595.32 841L595.32 -0.9199829L595.32 -0.9199829L8.871E-06 -0.9199829z" /></clipPath><clipPath id="29"><path d="M8.871E-06 841L595.32 841L595.32 841L595.32 -0.9199829L595.32 -0.9199829L8.871E-06 -0.9199829z" /></clipPath><clipPath id="30"><path d="M8.871E-06 841L595.32 841L595.32 841L595.32 -0.9199829L595.32 -0.9199829L8.871E-06 -0.9199829z" /></clipPath><clipPath id="31"><path d="M8.871E-06 841L595.32 841L595.32 841L595.32 -0.9199829L595.32 -0.9199829L8.871E-06 -0.9199829z" /></clipPath><clipPath id="32"><path d="M8.871E-06 841L595.32 841L595.32 841L595.32 -0.9199829L595.32 -0.9199829L8.871E-06 -0.9199829z" /></clipPath><clipPath id="33"><path d="M8.871E-06 841L595.32 841L595.32 841L595.32 -0.9199829L595.32 -0.9199829L8.871E-06 -0.9199829z" /></clipPath><clipPath id="34"><path d="M84.864 399.59L146.424 399.59L146.424 399.59L146.424 351.086L146.424 351.086L84.864 351.086z" /></clipPath><clipPath id="35"><path d="M84.864 399.59L146.424 399.59L146.424 399.59L146.424 351.086L146.424 351.086L84.864 351.086z" /></clipPath><clipPath id="36"><path d="M84.864 399.59L146.424 399.59L146.424 399.59L146.424 351.086L146.424 351.086L84.864 351.086z" /></clipPath><clipPath id="37"><path d="M147.02 399.59L238.604 399.59L238.604 399.59L238.604 351.086L238.604 351.086L147.02 351.086z" /></clipPath><clipPath id="38"><path d="M147.02 399.59L238.604 399.59L238.604 399.59L238.604 351.086L238.604 351.086L147.02 351.086z" /></clipPath><clipPath id="39"><path d="M147.02 399.59L238.604 399.59L238.604 399.59L238.604 351.086L238.604 351.086L147.02 351.086z" /></clipPath><clipPath id="40"><path d="M147.02 399.59L238.604 399.59L238.604 399.59L238.604 351.086L238.604 351.086L147.02 351.086z" /></clipPath><clipPath id="41"><path d="M147.02 399.59L238.604 399.59L238.604 399.59L238.604 351.086L238.604 351.086L147.02 351.086z" /></clipPath><clipPath id="42"><path d="M239.21 399.59L304.13 399.59L304.13 399.59L304.13 351.086L304.13 351.086L239.21 351.086z" /></clipPath><clipPath id="43"><path d="M239.21 399.59L304.13 399.59L304.13 399.59L304.13 351.086L304.13 351.086L239.21 351.086z" /></clipPath><clipPath id="44"><path d="M239.21 399.59L304.13 399.59L304.13 399.59L304.13 351.086L304.13 351.086L239.21 351.086z" /></clipPath><clipPath id="45"><path d="M304.61 399.59L364.994 399.59L364.994 399.59L364.994 351.086L364.994 351.086L304.61 351.086z" /></clipPath><clipPath id="46"><path d="M304.61 399.59L364.994 399.59L364.994 399.59L364.994 351.086L364.994 351.086L304.61 351.086z" /></clipPath><clipPath id="47"><path d="M304.61 399.59L364.994 399.59L364.994 399.59L364.994 351.086L364.994 351.086L304.61 351.086z" /></clipPath><clipPath id="48"><path d="M365.47 399.59L428.83 399.59L428.83 399.59L428.83 351.086L428.83 351.086L365.47 351.086z" /></clipPath><clipPath id="49"><path d="M365.47 399.59L428.83 399.59L428.83 399.59L428.83 351.086L428.83 351.086L365.47 351.086z" /></clipPath><clipPath id="50"><path d="M365.47 399.59L428.83 399.59L428.83 399.59L428.83 351.086L428.83 351.086L365.47 351.086z" /></clipPath><clipPath id="51"><path d="M429.31 399.59L493.894 399.59L493.894 399.59L493.894 351.086L493.894 351.086L429.31 351.086z" /></clipPath><clipPath id="52"><path d="M429.31 399.59L493.894 399.59L493.894 399.59L493.894 351.086L493.894 351.086L429.31 351.086z" /></clipPath><clipPath id="53"><path d="M429.31 399.59L493.894 399.59L493.894 399.59L493.894 351.086L493.894 351.086L429.31 351.086z" /></clipPath><clipPath id="54"><path d="M494.38 399.59L557.62 399.59L557.62 399.59L557.62 351.086L557.62 351.086L494.38 351.086z" /></clipPath><clipPath id="55"><path d="M494.38 399.59L557.62 399.59L557.62 399.59L557.62 351.086L557.62 351.086L494.38 351.086z" /></clipPath><clipPath id="56"><path d="M494.38 399.59L557.62 399.59L557.62 399.59L557.62 351.086L557.62 351.086L494.38 351.086z" /></clipPath><clipPath id="57"><path d="M84.864 422.63L146.424 422.63L146.424 422.63L146.424 400.07L146.424 400.07L84.864 400.07z" /></clipPath><clipPath id="58"><path d="M84.864 422.63L146.424 422.63L146.424 422.63L146.424 400.07L146.424 400.07L84.864 400.07z" /></clipPath><clipPath id="59"><path d="M147.02 422.63L238.604 422.63L238.604 422.63L238.604 400.07L238.604 400.07L147.02 400.07z" /></clipPath><clipPath id="60"><path d="M147.02 422.63L238.604 422.63L238.604 422.63L238.604 400.07L238.604 400.07L147.02 400.07z" /></clipPath><clipPath id="61"><path d="M239.21 422.63L304.13 422.63L304.13 422.63L304.13 400.07L304.13 400.07L239.21 400.07z" /></clipPath><clipPath id="62"><path d="M239.21 422.63L304.13 422.63L304.13 422.63L304.13 400.07L304.13 400.07L239.21 400.07z" /></clipPath><clipPath id="63"><path d="M304.61 422.63L364.994 422.63L364.994 422.63L364.994 400.07L364.994 400.07L304.61 400.07z" /></clipPath><clipPath id="64"><path d="M304.61 422.63L364.994 422.63L364.994 422.63L364.994 400.07L364.994 400.07L304.61 400.07z" /></clipPath><clipPath id="65"><path d="M365.47 422.63L428.83 422.63L428.83 422.63L428.83 400.07L428.83 400.07L365.47 400.07z" /></clipPath><clipPath id="66"><path d="M365.47 422.63L428.83 422.63L428.83 422.63L428.83 400.07L428.83 400.07L365.47 400.07z" /></clipPath><clipPath id="67"><path d="M429.31 422.63L493.894 422.63L493.894 422.63L493.894 400.07L493.894 400.07L429.31 400.07z" /></clipPath><clipPath id="68"><path d="M429.31 422.63L493.894 422.63L493.894 422.63L493.894 400.07L493.894 400.07L429.31 400.07z" /></clipPath><clipPath id="69"><path d="M494.38 422.63L557.62 422.63L557.62 422.63L557.62 400.07L557.62 400.07L494.38 400.07z" /></clipPath><clipPath id="70"><path d="M494.38 422.63L557.62 422.63L557.62 422.63L557.62 400.07L557.62 400.07L494.38 400.07z" /></clipPath><clipPath id="71"><path d="M84.864 445.67L146.424 445.67L146.424 445.67L146.424 423.11L146.424 423.11L84.864 423.11z" /></clipPath><clipPath id="72"><path d="M84.864 445.67L146.424 445.67L146.424 445.67L146.424 423.11L146.424 423.11L84.864 423.11z" /></clipPath><clipPath id="73"><path d="M147.02 445.67L238.604 445.67L238.604 445.67L238.604 423.11L238.604 423.11L147.02 423.11z" /></clipPath><clipPath id="74"><path d="M147.02 445.67L238.604 445.67L238.604 445.67L238.604 423.11L238.604 423.11L147.02 423.11z" /></clipPath><clipPath id="75"><path d="M239.21 445.67L304.13 445.67L304.13 445.67L304.13 423.11L304.13 423.11L239.21 423.11z" /></clipPath><clipPath id="76"><path d="M239.21 445.67L304.13 445.67L304.13 445.67L304.13 423.11L304.13 423.11L239.21 423.11z" /></clipPath><clipPath id="77"><path d="M304.61 445.67L364.994 445.67L364.994 445.67L364.994 423.11L364.994 423.11L304.61 423.11z" /></clipPath><clipPath id="78"><path d="M304.61 445.67L364.994 445.67L364.994 445.67L364.994 423.11L364.994 423.11L304.61 423.11z" /></clipPath><clipPath id="79"><path d="M365.47 445.67L428.83 445.67L428.83 445.67L428.83 423.11L428.83 423.11L365.47 423.11z" /></clipPath><clipPath id="80"><path d="M365.47 445.67L428.83 445.67L428.83 445.67L428.83 423.11L428.83 423.11L365.47 423.11z" /></clipPath><clipPath id="81"><path d="M429.31 445.67L493.894 445.67L493.894 445.67L493.894 423.11L493.894 423.11L429.31 423.11z" /></clipPath><clipPath id="82"><path d="M429.31 445.67L493.894 445.67L493.894 445.67L493.894 423.11L493.894 423.11L429.31 423.11z" /></clipPath><clipPath id="83"><path d="M494.38 445.67L557.62 445.67L557.62 445.67L557.62 423.11L557.62 423.11L494.38 423.11z" /></clipPath><clipPath id="84"><path d="M494.38 445.67L557.62 445.67L557.62 445.67L557.62 423.11L557.62 423.11L494.38 423.11z" /></clipPath><clipPath id="85"><path d="M84.864 468.71L146.424 468.71L146.424 468.71L146.424 446.15L146.424 446.15L84.864 446.15z" /></clipPath><clipPath id="86"><path d="M84.864 468.71L146.424 468.71L146.424 468.71L146.424 446.15L146.424 446.15L84.864 446.15z" /></clipPath><clipPath id="87"><path d="M147.02 468.71L238.604 468.71L238.604 468.71L238.604 446.15L238.604 446.15L147.02 446.15z" /></clipPath><clipPath id="88"><path d="M147.02 468.71L238.604 468.71L238.604 468.71L238.604 446.15L238.604 446.15L147.02 446.15z" /></clipPath><clipPath id="89"><path d="M239.21 468.71L304.13 468.71L304.13 468.71L304.13 446.15L304.13 446.15L239.21 446.15z" /></clipPath><clipPath id="90"><path d="M239.21 468.71L304.13 468.71L304.13 468.71L304.13 446.15L304.13 446.15L239.21 446.15z" /></clipPath><clipPath id="91"><path d="M304.61 468.71L364.994 468.71L364.994 468.71L364.994 446.15L364.994 446.15L304.61 446.15z" /></clipPath><clipPath id="92"><path d="M304.61 468.71L364.994 468.71L364.994 468.71L364.994 446.15L364.994 446.15L304.61 446.15z" /></clipPath><clipPath id="93"><path d="M365.47 468.71L428.83 468.71L428.83 468.71L428.83 446.15L428.83 446.15L365.47 446.15z" /></clipPath><clipPath id="94"><path d="M365.47 468.71L428.83 468.71L428.83 468.71L428.83 446.15L428.83 446.15L365.47 446.15z" /></clipPath><clipPath id="95"><path d="M429.31 468.71L493.894 468.71L493.894 468.71L493.894 446.15L493.894 446.15L429.31 446.15z" /></clipPath><clipPath id="96"><path d="M429.31 468.71L493.894 468.71L493.894 468.71L493.894 446.15L493.894 446.15L429.31 446.15z" /></clipPath><clipPath id="97"><path d="M494.38 468.71L557.62 468.71L557.62 468.71L557.62 446.15L557.62 446.15L494.38 446.15z" /></clipPath><clipPath id="98"><path d="M494.38 468.71L557.62 468.71L557.62 468.71L557.62 446.15L557.62 446.15L494.38 446.15z" /></clipPath><clipPath id="99"><path d="M8.871E-06 841L595.32 841L595.32 841L595.32 -0.9199829L595.32 -0.9199829L8.871E-06 -0.9199829z" /></clipPath><clipPath id="100"><path d="M8.871E-06 841L595.32 841L595.32 841L595.32 -0.9199829L595.32 -0.9199829L8.871E-06 -0.9199829z" /></clipPath><clipPath id="101"><path d="M8.871E-06 841L595.32 841L595.32 841L595.32 -0.9199829L595.32 -0.9199829L8.871E-06 -0.9199829z" /></clipPath><clipPath id="102"><path d="M8.871E-06 841L595.32 841L595.32 841L595.32 -0.9199829L595.32 -0.9199829L8.871E-06 -0.9199829z" /></clipPath><clipPath id="103"><path d="M8.871E-06 841L595.32 841L595.32 841L595.32 -0.9199829L595.32 -0.9199829L8.871E-06 -0.9199829z" /></clipPath><clipPath id="104"><path d="M8.871E-06 841L595.32 841L595.32 841L595.32 -0.9199829L595.32 -0.9199829L8.871E-06 -0.9199829z" /></clipPath><clipPath id="105"><path d="M8.871E-06 841L595.32 841L595.32 841L595.32 -0.9199829L595.32 -0.9199829L8.871E-06 -0.9199829z" /></clipPath><clipPath id="106"><path d="M8.871E-06 841L595.32 841L595.32 841L595.32 -0.9199829L595.32 -0.9199829L8.871E-06 -0.9199829z" /></clipPath><clipPath id="107"><path d="M8.871E-06 841L595.32 841L595.32 841L595.32 -0.9199829L595.32 -0.9199829L8.871E-06 -0.9199829z" /></clipPath><clipPath id="108"><path d="M8.871E-06 841L595.32 841L595.32 841L595.32 -0.9199829L595.32 -0.9199829L8.871E-06 -0.9199829z" /></clipPath><clipPath id="109"><path d="M8.871E-06 841L595.32 841L595.32 841L595.32 -0.9199829L595.32 -0.9199829L8.871E-06 -0.9199829z" /></clipPath><clipPath id="110"><path d="M8.871E-06 841L595.32 841L595.32 841L595.32 -0.9199829L595.32 -0.9199829L8.871E-06 -0.9199829z" /></clipPath><clipPath id="111"><path d="M8.871E-06 841L595.32 841L595.32 841L595.32 -0.9199829L595.32 -0.9199829L8.871E-06 -0.9199829z" /></clipPath><clipPath id="112"><path d="M8.871E-06 841L595.32 841L595.32 841L595.32 -0.9199829L595.32 -0.9199829L8.871E-06 -0.9199829z" /></clipPath><clipPath id="113"><path d="M8.871E-06 841L595.32 841L595.32 841L595.32 -0.9199829L595.32 -0.9199829L8.871E-06 -0.9199829z" /></clipPath><clipPath id="114"><path d="M8.871E-06 841L595.32 841L595.32 841L595.32 -0.9199829L595.32 -0.9199829L8.871E-06 -0.9199829z" /></clipPath><clipPath id="115"><path d="M8.871E-06 841L595.32 841L595.32 841L595.32 -0.9199829L595.32 -0.9199829L8.871E-06 -0.9199829z" /></clipPath><clipPath id="116"><path d="M8.871E-06 841L595.32 841L595.32 841L595.32 -0.9199829L595.32 -0.9199829L8.871E-06 -0.9199829z" /></clipPath><clipPath id="117"><path d="M8.871E-06 841L595.32 841L595.32 841L595.32 -0.9199829L595.32 -0.9199829L8.871E-06 -0.9199829z" /></clipPath><clipPath id="118"><path d="M8.871E-06 841L595.32 841L595.32 841L595.32 -0.9199829L595.32 -0.9199829L8.871E-06 -0.9199829z" /></clipPath><clipPath id="119"><path d="M8.871E-06 841L595.32 841L595.32 841L595.32 -0.9199829L595.32 -0.9199829L8.871E-06 -0.9199829z" /></clipPath><clipPath id="120"><path d="M8.871E-06 841L595.32 841L595.32 841L595.32 -0.9199829L595.32 -0.9199829L8.871E-06 -0.9199829z" /></clipPath><clipPath id="121"><path d="M8.871E-06 841L595.32 841L595.32 841L595.32 -0.9199829L595.32 -0.9199829L8.871E-06 -0.9199829z" /></clipPath><clipPath id="122"><path d="M8.871E-06 841L595.32 841L595.32 841L595.32 -0.9199829L595.32 -0.9199829L8.871E-06 -0.9199829z" /></clipPath><clipPath id="123"><path d="M8.871E-06 841L595.32 841L595.32 841L595.32 -0.9199829L595.32 -0.9199829L8.871E-06 -0.9199829z" /></clipPath><clipPath id="124"><path d="M8.871E-06 841L595.32 841L595.32 841L595.32 -0.9199829L595.32 -0.9199829L8.871E-06 -0.9199829z" /></clipPath><clipPath id="125"><path d="M8.871E-06 841L595.32 841L595.32 841L595.32 -0.9199829L595.32 -0.9199829L8.871E-06 -0.9199829z" /></clipPath><clipPath id="126"><path d="M8.871E-06 841L595.32 841L595.32 841L595.32 -0.9199829L595.32 -0.9199829L8.871E-06 -0.9199829z" /></clipPath><clipPath id="127"><path d="M8.871E-06 841L595.32 841L595.32 841L595.32 -0.9199829L595.32 -0.9199829L8.871E-06 -0.9199829z" /></clipPath><clipPath id="128"><path d="M8.871E-06 841L595.32 841L595.32 841L595.32 -0.9199829L595.32 -0.9199829L8.871E-06 -0.9199829z" /></clipPath><clipPath id="129"><path d="M8.871E-06 841L595.32 841L595.32 841L595.32 -0.9199829L595.32 -0.9199829L8.871E-06 -0.9199829z" /></clipPath><clipPath id="130"><path d="M8.871E-06 841L595.32 841L595.32 841L595.32 -0.9199829L595.32 -0.9199829L8.871E-06 -0.9199829z" /></clipPath><clipPath id="131"><path d="M8.871E-06 841L595.32 841L595.32 841L595.32 -0.9199829L595.32 -0.9199829L8.871E-06 -0.9199829z" /></clipPath><clipPath id="132"><path d="M8.871E-06 841L595.32 841L595.32 841L595.32 -0.9199829L595.32 -0.9199829L8.871E-06 -0.9199829z" /></clipPath><clipPath id="133"><path d="M8.871E-06 841L595.32 841L595.32 841L595.32 -0.9199829L595.32 -0.9199829L8.871E-06 -0.9199829z" /></clipPath><clipPath id="134"><path d="M8.871E-06 841L595.32 841L595.32 841L595.32 -0.9199829L595.32 -0.9199829L8.871E-06 -0.9199829z" /></clipPath><clipPath id="135"><path d="M8.871E-06 841L595.32 841L595.32 841L595.32 -0.9199829L595.32 -0.9199829L8.871E-06 -0.9199829z" /></clipPath><clipPath id="136"><path d="M8.871E-06 841L595.32 841L595.32 841L595.32 -0.9199829L595.32 -0.9199829L8.871E-06 -0.9199829z" /></clipPath><clipPath id="137"><path d="M8.871E-06 841L595.32 841L595.32 841L595.32 -0.9199829L595.32 -0.9199829L8.871E-06 -0.9199829z" /></clipPath><clipPath id="138"><path d="M8.871E-06 841L595.32 841L595.32 841L595.32 -0.9199829L595.32 -0.9199829L8.871E-06 -0.9199829z" /></clipPath><clipPath id="139"><path d="M8.871E-06 841L595.32 841L595.32 841L595.32 -0.9199829L595.32 -0.9199829L8.871E-06 -0.9199829z" /></clipPath><clipPath id="140"><path d="M8.871E-06 841L595.32 841L595.32 841L595.32 -0.9199829L595.32 -0.9199829L8.871E-06 -0.9199829z" /></clipPath><clipPath id="141"><path d="M8.871E-06 841L595.32 841L595.32 841L595.32 -0.9199829L595.32 -0.9199829L8.871E-06 -0.9199829z" /></clipPath><clipPath id="142"><path d="M8.871E-06 841L595.32 841L595.32 841L595.32 -0.9199829L595.32 -0.9199829L8.871E-06 -0.9199829z" /></clipPath><clipPath id="143"><path d="M8.871E-06 841L595.32 841L595.32 841L595.32 -0.9199829L595.32 -0.9199829L8.871E-06 -0.9199829z" /></clipPath><clipPath id="144"><path d="M8.871E-06 841L595.32 841L595.32 841L595.32 -0.9199829L595.32 -0.9199829L8.871E-06 -0.9199829z" /></clipPath><clipPath id="145"><path d="M8.871E-06 841L595.32 841L595.32 841L595.32 -0.9199829L595.32 -0.9199829L8.871E-06 -0.9199829z" /></clipPath><clipPath id="146"><path d="M8.871E-06 841L595.32 841L595.32 841L595.32 -0.9199829L595.32 -0.9199829L8.871E-06 -0.9199829z" /></clipPath><clipPath id="147"><path d="M8.871E-06 841L595.32 841L595.32 841L595.32 -0.9199829L595.32 -0.9199829L8.871E-06 -0.9199829z" /></clipPath><clipPath id="148"><path d="M8.871E-06 841L595.32 841L595.32 841L595.32 -0.9199829L595.32 -0.9199829L8.871E-06 -0.9199829z" /></clipPath><clipPath id="149"><path d="M8.871E-06 841L595.32 841L595.32 841L595.32 -0.9199829L595.32 -0.9199829L8.871E-06 -0.9199829z" /></clipPath><clipPath id="150"><path d="M8.871E-06 841L595.32 841L595.32 841L595.32 -0.9199829L595.32 -0.9199829L8.871E-06 -0.9199829z" /></clipPath><clipPath id="151"><path d="M8.871E-06 841L595.32 841L595.32 841L595.32 -0.9199829L595.32 -0.9199829L8.871E-06 -0.9199829z" /></clipPath></defs><g transform="matrix(1.333333 0 0 1.333333 0 0)"><g><g clip-path="url(#1)"><g clip-path="url(#2)"></g><g clip-path="url(#3)"></g><g clip-path="url(#4)"></g><g clip-path="url(#5)"></g><g clip-path="url(#6)"></g><g clip-path="url(#7)"></g><g clip-path="url(#8)"></g><g clip-path="url(#9)"></g><g clip-path="url(#10)"></g><g clip-path="url(#11)"></g><g clip-path="url(#12)"></g><g clip-path="url(#13)"></g><g clip-path="url(#14)"></g><g clip-path="url(#15)"></g><g clip-path="url(#16)"></g><g clip-path="url(#17)"></g><g clip-path="url(#18)"></g><g clip-path="url(#19)"></g><g clip-path="url(#20)"></g><g clip-path="url(#21)"></g><g clip-path="url(#22)"></g><g clip-path="url(#23)"></g><g clip-path="url(#24)"></g><g clip-path="url(#25)"></g><g clip-path="url(#26)"></g><g clip-path="url(#27)"></g><g clip-path="url(#28)"></g><g clip-path="url(#29)"></g><g clip-path="url(#30)"></g><g clip-path="url(#31)"></g><g clip-path="url(#32)"></g><g clip-path="url(#33)"></g><g clip-path="url(#34)"><g clip-path="url(#35)"></g><g clip-path="url(#36)"></g></g><g clip-path="url(#37)"><g clip-path="url(#38)"></g><g clip-path="url(#39)"></g><g clip-path="url(#40)"></g><g clip-path="url(#41)"></g></g><g clip-path="url(#42)"><g clip-path="url(#43)"></g><g clip-path="url(#44)"></g></g><g clip-path="url(#45)"><g clip-path="url(#46)"></g><g clip-path="url(#47)"></g></g><g clip-path="url(#48)"><g clip-path="url(#49)"></g><g clip-path="url(#50)"></g></g><g clip-path="url(#51)"><g clip-path="url(#52)"></g><g clip-path="url(#53)"></g></g><g clip-path="url(#54)"><g clip-path="url(#55)"></g><g clip-path="url(#56)"></g></g><path transform="matrix(1 0 0 -1 0 841)" d="M84.384 489.91L84.86401 489.91L84.86401 489.91L84.86401 490.39L84.86401 490.39L84.384 490.39z" stroke="none" fill="#000000" fill-rule="evenodd" /><path transform="matrix(1 0 0 -1 0 841)" d="M84.384 489.91L84.86401 489.91L84.86401 489.91L84.86401 490.39L84.86401 490.39L84.384 490.39z" stroke="none" fill="#000000" fill-rule="evenodd" /><path transform="matrix(1 0 0 -1 0 841)" d="M84.864 489.91L146.544 489.91L146.544 489.91L146.544 490.39L146.544 490.39L84.864 490.39z" stroke="none" fill="#000000" fill-rule="evenodd" /><path transform="matrix(1 0 0 -1 0 841)" d="M146.54 489.91L147.02 489.91L147.02 489.91L147.02 490.39L147.02 490.39L146.54 490.39z" stroke="none" fill="#000000" fill-rule="evenodd" /><path transform="matrix(1 0 0 -1 0 841)" d="M147.02 489.91L238.604 489.91L238.604 489.91L238.604 490.39L238.604 490.39L147.02 490.39z" stroke="none" fill="#000000" fill-rule="evenodd" /><path transform="matrix(1 0 0 -1 0 841)" d="M238.61 489.91L239.09 489.91L239.09 489.91L239.09 490.39L239.09 490.39L238.61 490.39z" stroke="none" fill="#000000" fill-rule="evenodd" /><path transform="matrix(1 0 0 -1 0 841)" d="M239.09 489.91L304.13 489.91L304.13 489.91L304.13 490.39L304.13 490.39L239.09 490.39z" stroke="none" fill="#000000" fill-rule="evenodd" /><path transform="matrix(1 0 0 -1 0 841)" d="M304.13 489.91L304.61 489.91L304.61 489.91L304.61 490.39L304.61 490.39L304.13 490.39z" stroke="none" fill="#000000" fill-rule="evenodd" /><path transform="matrix(1 0 0 -1 0 841)" d="M304.61 489.91L364.994 489.91L364.994 489.91L364.994 490.39L364.994 490.39L304.61 490.39z" stroke="none" fill="#000000" fill-rule="evenodd" /><path transform="matrix(1 0 0 -1 0 841)" d="M364.99 489.91L365.47 489.91L365.47 489.91L365.47 490.39L365.47 490.39L364.99 490.39z" stroke="none" fill="#000000" fill-rule="evenodd" /><path transform="matrix(1 0 0 -1 0 841)" d="M365.47 489.91L428.83 489.91L428.83 489.91L428.83 490.39L428.83 490.39L365.47 490.39z" stroke="none" fill="#000000" fill-rule="evenodd" /><path transform="matrix(1 0 0 -1 0 841)" d="M428.83 489.91L429.31 489.91L429.31 489.91L429.31 490.39L429.31 490.39L428.83 490.39z" stroke="none" fill="#000000" fill-rule="evenodd" /><path transform="matrix(1 0 0 -1 0 841)" d="M429.31 489.91L493.894 489.91L493.894 489.91L493.894 490.39L493.894 490.39L429.31 490.39z" stroke="none" fill="#000000" fill-rule="evenodd" /><path transform="matrix(1 0 0 -1 0 841)" d="M493.9 489.91L494.38 489.91L494.38 489.91L494.38 490.39L494.38 490.39L493.9 490.39z" stroke="none" fill="#000000" fill-rule="evenodd" /><path transform="matrix(1 0 0 -1 0 841)" d="M494.38 489.91L557.62 489.91L557.62 489.91L557.62 490.39L557.62 490.39L494.38 490.39z" stroke="none" fill="#000000" fill-rule="evenodd" /><path transform="matrix(1 0 0 -1 0 841)" d="M557.62 489.91L558.1 489.91L558.1 489.91L558.1 490.39L558.1 490.39L557.62 490.39z" stroke="none" fill="#000000" fill-rule="evenodd" /><path transform="matrix(1 0 0 -1 0 841)" d="M557.62 489.91L558.1 489.91L558.1 489.91L558.1 490.39L558.1 490.39L557.62 490.39z" stroke="none" fill="#000000" fill-rule="evenodd" /><path transform="matrix(1 0 0 -1 0 841)" d="M84.384 441.41L84.86401 441.41L84.86401 441.41L84.86401 489.914L84.86401 489.914L84.384 489.914z" stroke="none" fill="#000000" fill-rule="evenodd" /><path transform="matrix(1 0 0 -1 0 841)" d="M146.54 441.41L147.02 441.41L147.02 441.41L147.02 489.914L147.02 489.914L146.54 489.914z" stroke="none" fill="#000000" fill-rule="evenodd" /><path transform="matrix(1 0 0 -1 0 841)" d="M238.61 441.41L239.09 441.41L239.09 441.41L239.09 489.914L239.09 489.914L238.61 489.914z" stroke="none" fill="#000000" fill-rule="evenodd" /><path transform="matrix(1 0 0 -1 0 841)" d="M304.13 441.41L304.61 441.41L304.61 441.41L304.61 489.914L304.61 489.914L304.13 489.914z" stroke="none" fill="#000000" fill-rule="evenodd" /><path transform="matrix(1 0 0 -1 0 841)" d="M364.99 441.41L365.47 441.41L365.47 441.41L365.47 489.914L365.47 489.914L364.99 489.914z" stroke="none" fill="#000000" fill-rule="evenodd" /><path transform="matrix(1 0 0 -1 0 841)" d="M428.83 441.41L429.31 441.41L429.31 441.41L429.31 489.914L429.31 489.914L428.83 489.914z" stroke="none" fill="#000000" fill-rule="evenodd" /><path transform="matrix(1 0 0 -1 0 841)" d="M493.9 441.41L494.38 441.41L494.38 441.41L494.38 489.914L494.38 489.914L493.9 489.914z" stroke="none" fill="#000000" fill-rule="evenodd" /><path transform="matrix(1 0 0 -1 0 841)" d="M557.62 441.41L558.1 441.41L558.1 441.41L558.1 489.914L558.1 489.914L557.62 489.914z" stroke="none" fill="#000000" fill-rule="evenodd" /><g clip-path="url(#57)"><g clip-path="url(#58)"></g></g><g clip-path="url(#59)"><g clip-path="url(#60)"></g></g><g clip-path="url(#61)"><g clip-path="url(#62)"></g></g><g clip-path="url(#63)"><g clip-path="url(#64)"></g></g><g clip-path="url(#65)"><g clip-path="url(#66)"></g></g><g clip-path="url(#67)"><g clip-path="url(#68)"></g></g><g clip-path="url(#69)"><g clip-path="url(#70)"></g></g><path transform="matrix(1 0 0 -1 0 841)" d="M84.384 440.93L84.86401 440.93L84.86401 440.93L84.86401 441.41L84.86401 441.41L84.384 441.41z" stroke="none" fill="#000000" fill-rule="evenodd" /><path transform="matrix(1 0 0 -1 0 841)" d="M84.864 440.93L146.544 440.93L146.544 440.93L146.544 441.41L146.544 441.41L84.864 441.41z" stroke="none" fill="#000000" fill-rule="evenodd" /><path transform="matrix(1 0 0 -1 0 841)" d="M146.54 440.93L147.02 440.93L147.02 440.93L147.02 441.41L147.02 441.41L146.54 441.41z" stroke="none" fill="#000000" fill-rule="evenodd" /><path transform="matrix(1 0 0 -1 0 841)" d="M147.02 440.93L238.604 440.93L238.604 440.93L238.604 441.41L238.604 441.41L147.02 441.41z" stroke="none" fill="#000000" fill-rule="evenodd" /><path transform="matrix(1 0 0 -1 0 841)" d="M238.61 440.93L239.09 440.93L239.09 440.93L239.09 441.41L239.09 441.41L238.61 441.41z" stroke="none" fill="#000000" fill-rule="evenodd" /><path transform="matrix(1 0 0 -1 0 841)" d="M239.09 440.93L304.13 440.93L304.13 440.93L304.13 441.41L304.13 441.41L239.09 441.41z" stroke="none" fill="#000000" fill-rule="evenodd" /><path transform="matrix(1 0 0 -1 0 841)" d="M304.13 440.93L304.61 440.93L304.61 440.93L304.61 441.41L304.61 441.41L304.13 441.41z" stroke="none" fill="#000000" fill-rule="evenodd" /><path transform="matrix(1 0 0 -1 0 841)" d="M304.61 440.93L364.994 440.93L364.994 440.93L364.994 441.41L364.994 441.41L304.61 441.41z" stroke="none" fill="#000000" fill-rule="evenodd" /><path transform="matrix(1 0 0 -1 0 841)" d="M364.99 440.93L365.47 440.93L365.47 440.93L365.47 441.41L365.47 441.41L364.99 441.41z" stroke="none" fill="#000000" fill-rule="evenodd" /><path transform="matrix(1 0 0 -1 0 841)" d="M365.47 440.93L428.83 440.93L428.83 440.93L428.83 441.41L428.83 441.41L365.47 441.41z" stroke="none" fill="#000000" fill-rule="evenodd" /><path transform="matrix(1 0 0 -1 0 841)" d="M428.83 440.93L429.31 440.93L429.31 440.93L429.31 441.41L429.31 441.41L428.83 441.41z" stroke="none" fill="#000000" fill-rule="evenodd" /><path transform="matrix(1 0 0 -1 0 841)" d="M429.31 440.93L493.894 440.93L493.894 440.93L493.894 441.41L493.894 441.41L429.31 441.41z" stroke="none" fill="#000000" fill-rule="evenodd" /><path transform="matrix(1 0 0 -1 0 841)" d="M493.9 440.93L494.38 440.93L494.38 440.93L494.38 441.41L494.38 441.41L493.9 441.41z" stroke="none" fill="#000000" fill-rule="evenodd" /><path transform="matrix(1 0 0 -1 0 841)" d="M494.38 440.93L557.62 440.93L557.62 440.93L557.62 441.41L557.62 441.41L494.38 441.41z" stroke="none" fill="#000000" fill-rule="evenodd" /><path transform="matrix(1 0 0 -1 0 841)" d="M557.62 440.93L558.1 440.93L558.1 440.93L558.1 441.41L558.1 441.41L557.62 441.41z" stroke="none" fill="#000000" fill-rule="evenodd" /><path transform="matrix(1 0 0 -1 0 841)" d="M84.384 418.37L84.86401 418.37L84.86401 418.37L84.86401 440.93L84.86401 440.93L84.384 440.93z" stroke="none" fill="#000000" fill-rule="evenodd" /><path transform="matrix(1 0 0 -1 0 841)" d="M146.54 418.37L147.02 418.37L147.02 418.37L147.02 440.93L147.02 440.93L146.54 440.93z" stroke="none" fill="#000000" fill-rule="evenodd" /><path transform="matrix(1 0 0 -1 0 841)" d="M238.61 418.37L239.09 418.37L239.09 418.37L239.09 440.93L239.09 440.93L238.61 440.93z" stroke="none" fill="#000000" fill-rule="evenodd" /><path transform="matrix(1 0 0 -1 0 841)" d="M304.13 418.37L304.61 418.37L304.61 418.37L304.61 440.93L304.61 440.93L304.13 440.93z" stroke="none" fill="#000000" fill-rule="evenodd" /><path transform="matrix(1 0 0 -1 0 841)" d="M364.99 418.37L365.47 418.37L365.47 418.37L365.47 440.93L365.47 440.93L364.99 440.93z" stroke="none" fill="#000000" fill-rule="evenodd" /><path transform="matrix(1 0 0 -1 0 841)" d="M428.83 418.37L429.31 418.37L429.31 418.37L429.31 440.93L429.31 440.93L428.83 440.93z" stroke="none" fill="#000000" fill-rule="evenodd" /><path transform="matrix(1 0 0 -1 0 841)" d="M493.9 418.37L494.38 418.37L494.38 418.37L494.38 440.93L494.38 440.93L493.9 440.93z" stroke="none" fill="#000000" fill-rule="evenodd" /><path transform="matrix(1 0 0 -1 0 841)" d="M557.62 418.37L558.1 418.37L558.1 418.37L558.1 440.93L558.1 440.93L557.62 440.93z" stroke="none" fill="#000000" fill-rule="evenodd" /><g clip-path="url(#71)"><g clip-path="url(#72)"></g></g><g clip-path="url(#73)"><g clip-path="url(#74)"></g></g><g clip-path="url(#75)"><g clip-path="url(#76)"></g></g><g clip-path="url(#77)"><g clip-path="url(#78)"></g></g><g clip-path="url(#79)"><g clip-path="url(#80)"></g></g><g clip-path="url(#81)"><g clip-path="url(#82)"></g></g><g clip-path="url(#83)"><g clip-path="url(#84)"></g></g><path transform="matrix(1 0 0 -1 0 841)" d="M84.384 417.89L84.86401 417.89L84.86401 417.89L84.86401 418.37L84.86401 418.37L84.384 418.37z" stroke="none" fill="#000000" fill-rule="evenodd" /><path transform="matrix(1 0 0 -1 0 841)" d="M84.864 417.89L146.544 417.89L146.544 417.89L146.544 418.37L146.544 418.37L84.864 418.37z" stroke="none" fill="#000000" fill-rule="evenodd" /><path transform="matrix(1 0 0 -1 0 841)" d="M146.54 417.89L147.02 417.89L147.02 417.89L147.02 418.37L147.02 418.37L146.54 418.37z" stroke="none" fill="#000000" fill-rule="evenodd" /><path transform="matrix(1 0 0 -1 0 841)" d="M147.02 417.89L238.604 417.89L238.604 417.89L238.604 418.37L238.604 418.37L147.02 418.37z" stroke="none" fill="#000000" fill-rule="evenodd" /><path transform="matrix(1 0 0 -1 0 841)" d="M238.61 417.89L239.09 417.89L239.09 417.89L239.09 418.37L239.09 418.37L238.61 418.37z" stroke="none" fill="#000000" fill-rule="evenodd" /><path transform="matrix(1 0 0 -1 0 841)" d="M239.09 417.89L304.13 417.89L304.13 417.89L304.13 418.37L304.13 418.37L239.09 418.37z" stroke="none" fill="#000000" fill-rule="evenodd" /><path transform="matrix(1 0 0 -1 0 841)" d="M304.13 417.89L304.61 417.89L304.61 417.89L304.61 418.37L304.61 418.37L304.13 418.37z" stroke="none" fill="#000000" fill-rule="evenodd" /><path transform="matrix(1 0 0 -1 0 841)" d="M304.61 417.89L364.994 417.89L364.994 417.89L364.994 418.37L364.994 418.37L304.61 418.37z" stroke="none" fill="#000000" fill-rule="evenodd" /><path transform="matrix(1 0 0 -1 0 841)" d="M364.99 417.89L365.47 417.89L365.47 417.89L365.47 418.37L365.47 418.37L364.99 418.37z" stroke="none" fill="#000000" fill-rule="evenodd" /><path transform="matrix(1 0 0 -1 0 841)" d="M365.47 417.89L428.83 417.89L428.83 417.89L428.83 418.37L428.83 418.37L365.47 418.37z" stroke="none" fill="#000000" fill-rule="evenodd" /><path transform="matrix(1 0 0 -1 0 841)" d="M428.83 417.89L429.31 417.89L429.31 417.89L429.31 418.37L429.31 418.37L428.83 418.37z" stroke="none" fill="#000000" fill-rule="evenodd" /><path transform="matrix(1 0 0 -1 0 841)" d="M429.31 417.89L493.894 417.89L493.894 417.89L493.894 418.37L493.894 418.37L429.31 418.37z" stroke="none" fill="#000000" fill-rule="evenodd" /><path transform="matrix(1 0 0 -1 0 841)" d="M493.9 417.89L494.38 417.89L494.38 417.89L494.38 418.37L494.38 418.37L493.9 418.37z" stroke="none" fill="#000000" fill-rule="evenodd" /><path transform="matrix(1 0 0 -1 0 841)" d="M494.38 417.89L557.62 417.89L557.62 417.89L557.62 418.37L557.62 418.37L494.38 418.37z" stroke="none" fill="#000000" fill-rule="evenodd" /><path transform="matrix(1 0 0 -1 0 841)" d="M557.62 417.89L558.1 417.89L558.1 417.89L558.1 418.37L558.1 418.37L557.62 418.37z" stroke="none" fill="#000000" fill-rule="evenodd" /><path transform="matrix(1 0 0 -1 0 841)" d="M84.384 395.33L84.86401 395.33L84.86401 395.33L84.86401 417.89L84.86401 417.89L84.384 417.89z" stroke="none" fill="#000000" fill-rule="evenodd" /><path transform="matrix(1 0 0 -1 0 841)" d="M146.54 395.33L147.02 395.33L147.02 395.33L147.02 417.89L147.02 417.89L146.54 417.89z" stroke="none" fill="#000000" fill-rule="evenodd" /><path transform="matrix(1 0 0 -1 0 841)" d="M238.61 395.33L239.09 395.33L239.09 395.33L239.09 417.89L239.09 417.89L238.61 417.89z" stroke="none" fill="#000000" fill-rule="evenodd" /><path transform="matrix(1 0 0 -1 0 841)" d="M304.13 395.33L304.61 395.33L304.61 395.33L304.61 417.89L304.61 417.89L304.13 417.89z" stroke="none" fill="#000000" fill-rule="evenodd" /><path transform="matrix(1 0 0 -1 0 841)" d="M364.99 395.33L365.47 395.33L365.47 395.33L365.47 417.89L365.47 417.89L364.99 417.89z" stroke="none" fill="#000000" fill-rule="evenodd" /><path transform="matrix(1 0 0 -1 0 841)" d="M428.83 395.33L429.31 395.33L429.31 395.33L429.31 417.89L429.31 417.89L428.83 417.89z" stroke="none" fill="#000000" fill-rule="evenodd" /><path transform="matrix(1 0 0 -1 0 841)" d="M493.9 395.33L494.38 395.33L494.38 395.33L494.38 417.89L494.38 417.89L493.9 417.89z" stroke="none" fill="#000000" fill-rule="evenodd" /><path transform="matrix(1 0 0 -1 0 841)" d="M557.62 395.33L558.1 395.33L558.1 395.33L558.1 417.89L558.1 417.89L557.62 417.89z" stroke="none" fill="#000000" fill-rule="evenodd" /><g clip-path="url(#85)"><g clip-path="url(#86)"></g></g><g clip-path="url(#87)"><g clip-path="url(#88)"></g></g><g clip-path="url(#89)"><g clip-path="url(#90)"></g></g><g clip-path="url(#91)"><g clip-path="url(#92)"></g></g><g clip-path="url(#93)"><g clip-path="url(#94)"></g></g><g clip-path="url(#95)"><g clip-path="url(#96)"></g></g><g clip-path="url(#97)"><g clip-path="url(#98)"></g></g><path transform="matrix(1 0 0 -1 0 841)" d="M84.384 394.85L84.86401 394.85L84.86401 394.85L84.86401 395.33L84.86401 395.33L84.384 395.33z" stroke="none" fill="#000000" fill-rule="evenodd" /><path transform="matrix(1 0 0 -1 0 841)" d="M84.864 394.85L146.544 394.85L146.544 394.85L146.544 395.33L146.544 395.33L84.864 395.33z" stroke="none" fill="#000000" fill-rule="evenodd" /><path transform="matrix(1 0 0 -1 0 841)" d="M146.54 394.85L147.02 394.85L147.02 394.85L147.02 395.33L147.02 395.33L146.54 395.33z" stroke="none" fill="#000000" fill-rule="evenodd" /><path transform="matrix(1 0 0 -1 0 841)" d="M147.02 394.85L238.604 394.85L238.604 394.85L238.604 395.33L238.604 395.33L147.02 395.33z" stroke="none" fill="#000000" fill-rule="evenodd" /><path transform="matrix(1 0 0 -1 0 841)" d="M238.61 394.85L239.09 394.85L239.09 394.85L239.09 395.33L239.09 395.33L238.61 395.33z" stroke="none" fill="#000000" fill-rule="evenodd" /><path transform="matrix(1 0 0 -1 0 841)" d="M239.09 394.85L304.13 394.85L304.13 394.85L304.13 395.33L304.13 395.33L239.09 395.33z" stroke="none" fill="#000000" fill-rule="evenodd" /><path transform="matrix(1 0 0 -1 0 841)" d="M304.13 394.85L304.61 394.85L304.61 394.85L304.61 395.33L304.61 395.33L304.13 395.33z" stroke="none" fill="#000000" fill-rule="evenodd" /><path transform="matrix(1 0 0 -1 0 841)" d="M304.61 394.85L364.994 394.85L364.994 394.85L364.994 395.33L364.994 395.33L304.61 395.33z" stroke="none" fill="#000000" fill-rule="evenodd" /><path transform="matrix(1 0 0 -1 0 841)" d="M364.99 394.85L365.47 394.85L365.47 394.85L365.47 395.33L365.47 395.33L364.99 395.33z" stroke="none" fill="#000000" fill-rule="evenodd" /><path transform="matrix(1 0 0 -1 0 841)" d="M365.47 394.85L428.83 394.85L428.83 394.85L428.83 395.33L428.83 395.33L365.47 395.33z" stroke="none" fill="#000000" fill-rule="evenodd" /><path transform="matrix(1 0 0 -1 0 841)" d="M428.83 394.85L429.31 394.85L429.31 394.85L429.31 395.33L429.31 395.33L428.83 395.33z" stroke="none" fill="#000000" fill-rule="evenodd" /><path transform="matrix(1 0 0 -1 0 841)" d="M429.31 394.85L493.894 394.85L493.894 394.85L493.894 395.33L493.894 395.33L429.31 395.33z" stroke="none" fill="#000000" fill-rule="evenodd" /><path transform="matrix(1 0 0 -1 0 841)" d="M493.9 394.85L494.38 394.85L494.38 394.85L494.38 395.33L494.38 395.33L493.9 395.33z" stroke="none" fill="#000000" fill-rule="evenodd" /><path transform="matrix(1 0 0 -1 0 841)" d="M494.38 394.85L557.62 394.85L557.62 394.85L557.62 395.33L557.62 395.33L494.38 395.33z" stroke="none" fill="#000000" fill-rule="evenodd" /><path transform="matrix(1 0 0 -1 0 841)" d="M557.62 394.85L558.1 394.85L558.1 394.85L558.1 395.33L558.1 395.33L557.62 395.33z" stroke="none" fill="#000000" fill-rule="evenodd" /><path transform="matrix(1 0 0 -1 0 841)" d="M84.384 372.17L84.86401 372.17L84.86401 372.17L84.86401 394.85L84.86401 394.85L84.384 394.85z" stroke="none" fill="#000000" fill-rule="evenodd" /><path transform="matrix(1 0 0 -1 0 841)" d="M84.384 371.69L84.86401 371.69L84.86401 371.69L84.86401 372.17L84.86401 372.17L84.384 372.17z" stroke="none" fill="#000000" fill-rule="evenodd" /><path transform="matrix(1 0 0 -1 0 841)" d="M84.384 371.69L84.86401 371.69L84.86401 371.69L84.86401 372.17L84.86401 372.17L84.384 372.17z" stroke="none" fill="#000000" fill-rule="evenodd" /><path transform="matrix(1 0 0 -1 0 841)" d="M84.864 371.69L146.544 371.69L146.544 371.69L146.544 372.17L146.544 372.17L84.864 372.17z" stroke="none" fill="#000000" fill-rule="evenodd" /><path transform="matrix(1 0 0 -1 0 841)" d="M146.54 372.17L147.02 372.17L147.02 372.17L147.02 394.85L147.02 394.85L146.54 394.85z" stroke="none" fill="#000000" fill-rule="evenodd" /><path transform="matrix(1 0 0 -1 0 841)" d="M146.54 371.69L147.02 371.69L147.02 371.69L147.02 372.17L147.02 372.17L146.54 372.17z" stroke="none" fill="#000000" fill-rule="evenodd" /><path transform="matrix(1 0 0 -1 0 841)" d="M147.02 371.69L238.604 371.69L238.604 371.69L238.604 372.17L238.604 372.17L147.02 372.17z" stroke="none" fill="#000000" fill-rule="evenodd" /><path transform="matrix(1 0 0 -1 0 841)" d="M238.61 372.17L239.09 372.17L239.09 372.17L239.09 394.85L239.09 394.85L238.61 394.85z" stroke="none" fill="#000000" fill-rule="evenodd" /><path transform="matrix(1 0 0 -1 0 841)" d="M238.61 371.69L239.09 371.69L239.09 371.69L239.09 372.17L239.09 372.17L238.61 372.17z" stroke="none" fill="#000000" fill-rule="evenodd" /><path transform="matrix(1 0 0 -1 0 841)" d="M239.09 371.69L304.13 371.69L304.13 371.69L304.13 372.17L304.13 372.17L239.09 372.17z" stroke="none" fill="#000000" fill-rule="evenodd" /><path transform="matrix(1 0 0 -1 0 841)" d="M304.13 372.17L304.61 372.17L304.61 372.17L304.61 394.85L304.61 394.85L304.13 394.85z" stroke="none" fill="#000000" fill-rule="evenodd" /><path transform="matrix(1 0 0 -1 0 841)" d="M304.13 371.69L304.61 371.69L304.61 371.69L304.61 372.17L304.61 372.17L304.13 372.17z" stroke="none" fill="#000000" fill-rule="evenodd" /><path transform="matrix(1 0 0 -1 0 841)" d="M304.61 371.69L364.994 371.69L364.994 371.69L364.994 372.17L364.994 372.17L304.61 372.17z" stroke="none" fill="#000000" fill-rule="evenodd" /><path transform="matrix(1 0 0 -1 0 841)" d="M364.99 372.17L365.47 372.17L365.47 372.17L365.47 394.85L365.47 394.85L364.99 394.85z" stroke="none" fill="#000000" fill-rule="evenodd" /><path transform="matrix(1 0 0 -1 0 841)" d="M364.99 371.69L365.47 371.69L365.47 371.69L365.47 372.17L365.47 372.17L364.99 372.17z" stroke="none" fill="#000000" fill-rule="evenodd" /><path transform="matrix(1 0 0 -1 0 841)" d="M365.47 371.69L428.83 371.69L428.83 371.69L428.83 372.17L428.83 372.17L365.47 372.17z" stroke="none" fill="#000000" fill-rule="evenodd" /><path transform="matrix(1 0 0 -1 0 841)" d="M428.83 372.17L429.31 372.17L429.31 372.17L429.31 394.85L429.31 394.85L428.83 394.85z" stroke="none" fill="#000000" fill-rule="evenodd" /><path transform="matrix(1 0 0 -1 0 841)" d="M428.83 371.69L429.31 371.69L429.31 371.69L429.31 372.17L429.31 372.17L428.83 372.17z" stroke="none" fill="#000000" fill-rule="evenodd" /><path transform="matrix(1 0 0 -1 0 841)" d="M429.31 371.69L493.894 371.69L493.894 371.69L493.894 372.17L493.894 372.17L429.31 372.17z" stroke="none" fill="#000000" fill-rule="evenodd" /><path transform="matrix(1 0 0 -1 0 841)" d="M493.9 372.17L494.38 372.17L494.38 372.17L494.38 394.85L494.38 394.85L493.9 394.85z" stroke="none" fill="#000000" fill-rule="evenodd" /><path transform="matrix(1 0 0 -1 0 841)" d="M493.9 371.69L494.38 371.69L494.38 371.69L494.38 372.17L494.38 372.17L493.9 372.17z" stroke="none" fill="#000000" fill-rule="evenodd" /><path transform="matrix(1 0 0 -1 0 841)" d="M494.38 371.69L557.62 371.69L557.62 371.69L557.62 372.17L557.62 372.17L494.38 372.17z" stroke="none" fill="#000000" fill-rule="evenodd" /><path transform="matrix(1 0 0 -1 0 841)" d="M557.62 372.17L558.1 372.17L558.1 372.17L558.1 394.85L558.1 394.85L557.62 394.85z" stroke="none" fill="#000000" fill-rule="evenodd" /><path transform="matrix(1 0 0 -1 0 841)" d="M557.62 371.69L558.1 371.69L558.1 371.69L558.1 372.17L558.1 372.17L557.62 372.17z" stroke="none" fill="#000000" fill-rule="evenodd" /><path transform="matrix(1 0 0 -1 0 841)" d="M557.62 371.69L558.1 371.69L558.1 371.69L558.1 372.17L558.1 372.17L557.62 372.17z" stroke="none" fill="#000000" fill-rule="evenodd" /><g clip-path="url(#99)"></g><g clip-path="url(#100)"></g><g clip-path="url(#101)"></g><g clip-path="url(#102)"></g><g clip-path="url(#103)"></g><g clip-path="url(#104)"></g><g clip-path="url(#105)"></g><g clip-path="url(#106)"></g><g clip-path="url(#107)"></g><g clip-path="url(#108)"></g><g clip-path="url(#109)"></g><g clip-path="url(#110)"></g><path transform="matrix(1 0 0 -1 0 841)" d="M411.43 312.14L447.454 312.14L447.454 312.14L447.454 312.74L447.454 312.74L411.43 312.74z" stroke="none" fill="#000000" fill-rule="evenodd" /><g clip-path="url(#111)"></g><g clip-path="url(#112)"></g><g clip-path="url(#113)"></g><g clip-path="url(#114)"></g><g clip-path="url(#115)"></g><g clip-path="url(#116)"></g><g clip-path="url(#117)"></g><g clip-path="url(#118)"></g><path transform="matrix(1 0 0 -1 0 841)" d="M123.02 289.58L159.02 289.58L159.02 289.58L159.02 290.18L159.02 290.18L123.02 290.18z" stroke="none" fill="#000000" fill-rule="evenodd" /><g clip-path="url(#119)"></g><g clip-path="url(#120)"></g><g clip-path="url(#121)"></g><g clip-path="url(#122)"></g><g clip-path="url(#123)"></g><g clip-path="url(#124)"></g><g clip-path="url(#125)"></g><g clip-path="url(#126)"></g><path transform="matrix(1 0 0 -1 0 841)" d="M303.05 267.02L339.074 267.02L339.074 267.02L339.074 267.62L339.074 267.62L303.05 267.62z" stroke="none" fill="#000000" fill-rule="evenodd" /><path transform="matrix(1 0 0 -1 0 841)" d="M381.07 267.02L417.07 267.02L417.07 267.02L417.07 267.62L417.07 267.62L381.07 267.62z" stroke="none" fill="#000000" fill-rule="evenodd" /><g clip-path="url(#127)"></g><g clip-path="url(#128)"></g><g clip-path="url(#129)"></g><g clip-path="url(#130)"></g><g clip-path="url(#131)"></g><g clip-path="url(#132)"></g><g clip-path="url(#133)"></g><g clip-path="url(#134)"></g><g clip-path="url(#135)"></g><g clip-path="url(#136)"></g><g clip-path="url(#137)"></g><g clip-path="url(#138)"></g><g clip-path="url(#139)"></g><g clip-path="url(#140)"></g><g clip-path="url(#141)"></g><g clip-path="url(#142)"></g><g clip-path="url(#143)"></g><g clip-path="url(#144)"></g><g clip-path="url(#145)"></g><g clip-path="url(#146)"></g><g clip-path="url(#147)"></g><g clip-path="url(#148)"></g><g clip-path="url(#149)"></g><g clip-path="url(#150)"></g><g clip-path="url(#151)"></g></g></g></g></svg>